<?xml version="1.0" standalone="no"?>
<!DOCTYPE svg PUBLIC "-//W3C//DTD SVG 1.1//EN" "http://www.w3.org/Graphics/SVG/1.1/DTD/svg11.dtd" >
<svg xmlns="http://www.w3.org/2000/svg">
<metadata></metadata>
<defs>
<font id="outer_zoneregular" horiz-adv-x="1370" >
<font-face units-per-em="2048" ascent="1638" descent="-410" />
<missing-glyph horiz-adv-x="819" />
<glyph horiz-adv-x="0" />
<glyph unicode="&#xd;" horiz-adv-x="550" />
<glyph unicode=" "  horiz-adv-x="819" />
<glyph unicode="&#x09;" horiz-adv-x="819" />
<glyph unicode="&#xa0;" horiz-adv-x="819" />
<glyph unicode="!" horiz-adv-x="649" d="M69 579v1378h518v-1378h-518zM77 -142v495h510v-495h-510z" />
<glyph unicode="&#x22;" horiz-adv-x="1281" d="M56 1076v858h518v-858h-518zM701 1076v858h518v-858h-518z" />
<glyph unicode="'" horiz-adv-x="627" d="M56 1076v858h518v-858h-518z" />
<glyph unicode="(" horiz-adv-x="877" d="M62 828v171q0 437 43 617q64 196 203 274q126 60 461 60h68v-489q-257 -9 -257 -50q-94 0 -94 -351v-265q0 -323 60 -361q0 -76 291 -76v-488h-155q-394 0 -501 162q-119 134 -119 796z" />
<glyph unicode=")" horiz-adv-x="872" d="M48 -130v488q291 0 291 76q60 38 60 361v265q0 351 -94 351q0 41 -257 50v489h68q335 0 461 -60q139 -78 203 -274q43 -180 43 -617v-171q0 -662 -119 -796q-107 -162 -501 -162h-155z" />
<glyph unicode="+" horiz-adv-x="1375" d="M57 241v518h1256v-518h-1256zM426 -128v1256h518v-1256h-518z" />
<glyph unicode="," horiz-adv-x="652" d="M61 352h518v-955h-518v955z" />
<glyph unicode="-" d="M57 241v518h1256v-518h-1256z" />
<glyph unicode="." horiz-adv-x="626" d="M62 -142v495h510v-495h-510z" />
<glyph unicode="/" horiz-adv-x="1582" d="M26 -127l982 2011h543l-984 -2011h-541z" />
<glyph unicode="0" horiz-adv-x="2143" d="M60 424v365q0 490 136 569q107 119 645 119h568v-433l-59 8q-131 0 -365 9q-382 -10 -382 -77q-45 0 -51 -331q0 -116 17 -246h-492q-17 0 -17 17zM705 -144v424q157 -9 229 -9h178q342 0 399 51q60 64 60 306v76q0 97 -17 229h509v-475q0 -435 -170 -509 q-63 -102 -849 -102h-195q-44 0 -144 9z" />
<glyph unicode="1" horiz-adv-x="1209" d="M60 950v9q45 53 577 501h492v-1163h-483v611h-9l-314 -263q-10 1 -263 305z" />
<glyph unicode="2" horiz-adv-x="2066" d="M60 942q0 376 161 450q147 85 552 85h602q480 0 527 -170q59 -70 59 -357q0 -332 -102 -424q-102 -102 -484 -102h-1307v357h1214q212 0 212 85q9 44 9 84q0 162 -102 162q-53 8 -119 8h-458q-280 0 -280 -76q-9 -88 -9 -102h-475zM77 59v94l8 85h1901v-357 q0 -17 -17 -17h-1867q-25 0 -25 195z" />
<glyph unicode="3" horiz-adv-x="1752" d="M60 1112v365h925q431 0 543 -102q119 -99 119 -348q0 -216 -110 -289q-101 -51 -128 -51v-8q96 0 204 -94q59 -84 59 -203v-119q0 -234 -152 -322q-177 -85 -577 -85h-17l-60 -9v374q3 17 17 17h119q195 0 195 101v51q0 102 -153 102q-28 9 -178 9h-356v348h339 q314 0 314 84q0 7 9 51q0 119 -179 119h-25q-690 9 -908 9z" />
<glyph unicode="4" horiz-adv-x="2100" d="M60 433v356q38 38 950 696h688q17 -3 17 -17v-679h305v-339q0 -17 -17 -17h-288v-162h-475v162h-1180zM773 789h467v314h-9q-330 -228 -458 -305v-9z" />
<glyph unicode="5" horiz-adv-x="2058" d="M60 297v119h467v-9q0 -161 85 -161q75 -17 203 -17h289q212 0 212 85q8 44 8 85q0 161 -101 161q-56 9 -111 9q-226 0 -1052 8v348h1137q480 0 526 -170q60 -70 60 -356q0 -332 -102 -425q-102 -101 -484 -101h-433q-613 0 -662 212q-42 76 -42 212zM68 1196v94 q0 195 26 195h1867q17 -3 17 -17v-356h-1901z" />
<glyph unicode="6" horiz-adv-x="2007" d="M60 526v390q0 422 204 510q222 76 746 76h9v-365h-76q-391 0 -391 -76q-20 0 -25 -153v-119q95 136 628 136h8q543 0 671 -144q93 -132 93 -374v-25q0 -347 -170 -433q-113 -76 -585 -76h-374q-505 0 -611 127q-127 87 -127 526zM535 390q0 -152 161 -152h442 q297 0 297 67q17 31 17 68v26q0 153 -162 153q-157 8 -339 8h-25q-374 0 -374 -76q-17 -31 -17 -68v-26z" />
<glyph unicode="7" horiz-adv-x="1956" d="M60 619v408h1816v-357q0 -42 -348 -483q0 -26 -144 -196h-594v9l467 619h-1197z" />
<glyph unicode="8" horiz-adv-x="1982" d="M60 305v722q0 300 136 390q172 93 687 93v-364h-8q-331 0 -331 -68q-17 -44 -17 -68q0 -128 152 -128q100 0 204 -8v-348h-76q-272 0 -272 -59l-8 -85q0 -136 119 -136q148 0 237 -8v-365q-636 0 -721 118q-102 90 -102 314zM1070 -127v373h119q237 0 237 76v102 q0 94 -136 94q-79 8 -220 8v348h8q340 0 340 59l8 51v43q0 110 -178 110q-128 9 -178 9v364q569 0 713 -110q110 -97 110 -305v-679q0 -47 9 -119q0 -184 -94 -297q-80 -119 -636 -119q0 -8 -102 -8z" />
<glyph unicode="9" horiz-adv-x="2058" d="M60 -102v357h1901l8 -85v-94q0 -195 -25 -195h-1867q-17 0 -17 17zM255 967q0 332 102 425q102 101 484 101h433q613 0 661 -212q43 -76 43 -212v-628h-1137q-480 0 -526 170q-60 70 -60 356zM713 967q0 -161 102 -161q53 -8 119 -8h577v127q0 195 -76 195 q-93 17 -212 17h-289q-212 0 -212 -85q-9 -44 -9 -85z" />
<glyph unicode=":" horiz-adv-x="660" d="M77 -142v495h510v-495h-510zM77 504v495h510v-495h-510z" />
<glyph unicode=";" horiz-adv-x="655" d="M61 349h518v-952h-518v952zM67 504v495h510v-495h-510z" />
<glyph unicode="=" horiz-adv-x="1379" d="M57 42v518h1256v-518h-1256zM57 683v518h1256v-518h-1256z" />
<glyph unicode="?" horiz-adv-x="2031" d="M60 1324q0 376 161 450q147 85 552 85h602q480 0 527 -170q59 -70 59 -357q0 -332 -102 -424q-102 -102 -484 -102h-638v357h545q212 0 212 85q9 44 9 84q0 162 -102 162q-53 8 -119 8h-458q-280 0 -280 -76q-9 -88 -9 -102h-475zM733 505v648h518v-648h-518zM741 -142 v495h510v-495h-510z" />
<glyph unicode="A" horiz-adv-x="2346" d="M60 144l908 1706q60 110 68 110h526q-114 -230 -195 -373q85 -136 755 -1434q111 -191 144 -289h-534q-21 0 -153 280h-1519zM790 492h611v9q-214 438 -306 585q-15 -3 -305 -594z" />
<glyph unicode="B" horiz-adv-x="2143" d="M60 1086v382h594q372 0 1001 -8q157 0 280 -119q68 -116 68 -297q0 -307 -195 -357h-8v-8q163 0 237 -187q17 -80 17 -127v-594q0 -47 9 -119q0 -407 -399 -407q-601 -9 -959 -9h-178v391h365q212 0 602 8q94 0 94 221v407q0 229 -51 229q0 14 -60 17h-950v331h806 q187 0 187 85v68q-12 85 -85 85h-212q-367 0 -1163 8z" />
<glyph unicode="C" horiz-adv-x="2151" d="M60 467v186q0 634 110 671q116 127 289 127q173 34 577 34h322q505 0 603 -127q110 -87 110 -425v-34q0 -17 -17 -17h-458q-14 0 -42 153q-84 43 -289 43h-416q-254 0 -254 -94q-37 0 -43 -348q0 -365 136 -365q54 -13 382 -25v-399h-178q-551 0 -679 110 q-153 97 -153 510z" />
<glyph unicode="D" horiz-adv-x="2245" d="M60 -136v416h1146q415 0 415 76q43 17 51 204v212q0 208 -110 263q-104 26 -382 26h-619v407h288q1044 0 1044 -68q93 0 204 -195q68 -131 68 -509q0 -592 -170 -705q-84 -127 -857 -127h-1078z" />
<glyph unicode="E" horiz-adv-x="1914" d="M60 -127v959h1697v-357h-1213v-220h1281v-382h-1765zM60 1086v382h1774v-382h-1774z" />
<glyph unicode="F" horiz-adv-x="1769" d="M60 -764v2215q3 17 17 17h950v-382h-475v-297h1137v-356q0 -17 -17 -17h-1120v-1180h-492z" />
<glyph unicode="G" horiz-adv-x="2253" d="M60 467v314q0 515 187 602q44 71 526 102q235 0 288 8v-407h-8q-467 0 -467 -102q-27 0 -34 -220v-187q0 -251 68 -297q26 -17 102 -34q337 -8 492 -8q450 0 450 59q19 0 25 76v85h-636v323h1103q17 -3 17 -17v-26q0 -568 -59 -670q-128 -204 -510 -204q0 -17 -441 -17 h-93q-791 0 -866 136q-144 94 -144 484z" />
<glyph unicode="H" horiz-adv-x="2253" d="M60 -127v1213h518v-187h1086v985h509v-1629h-518v195h-1077v-560q0 -17 -17 -17h-501z" />
<glyph unicode="I" horiz-adv-x="658" d="M60 229v1256h518v-1256h-518zM68 -102h510v-390h-510v390z" />
<glyph unicode="J" horiz-adv-x="1820" d="M60 433v136q3 16 17 16h475q0 -271 94 -271q105 -26 246 -26q339 0 339 85q17 0 17 60v704h492v-713q0 -359 -169 -458q-148 -102 -645 -102q-596 0 -739 119q-127 99 -127 450z" />
<glyph unicode="K" horiz-adv-x="2007" d="M60 -738v2647h492v-1001q525 491 645 594h730v-9l-908 -789l424 -356h-704l-187 153v-1239h-492z" />
<glyph unicode="L" horiz-adv-x="1786" d="M60 -110v891h518v-476h1128v-415h-1646z" />
<glyph unicode="M" horiz-adv-x="2440" d="M60 -110v1595h789q43 -59 204 -424h-526q8 -434 8 -637v-534h-475zM883 -110q0 19 348 797q178 391 357 798h772v-2223h-467v1807h-8q0 -12 -586 -1179h-416z" />
<glyph unicode="N" horiz-adv-x="2262" d="M60 271v1214h798l831 -1171v1646h493v-2070h-807q0 13 -712 1018q-96 134 -102 153h-9v-790h-492z" />
<glyph unicode="O" horiz-adv-x="2321" d="M60 569v263q0 509 195 585q67 93 891 93q836 0 900 -93q85 -32 144 -170q51 -153 51 -415v-297q0 -500 -195 -586q-132 -85 -671 -85v424h9q278 0 322 77q43 34 51 271q0 416 -119 416q0 34 -449 34h-43q-534 0 -534 -68q-60 -40 -60 -237v-255q0 -149 94 -204 q98 -34 297 -34v-424q-688 0 -756 144q-127 88 -127 561z" />
<glyph unicode="P" horiz-adv-x="2049" d="M60 -110v789h1052q340 0 340 59q25 40 25 153q0 139 -68 170q-128 25 -585 25h-764v399h1112q609 0 670 -127q127 -95 127 -450v-34q0 -420 -169 -509q-128 -85 -433 -85h-823v-390h-484z" />
<glyph unicode="Q" horiz-adv-x="2321" d="M60 543v263q0 509 195 586q67 93 891 93q836 0 900 -93q85 -32 144 -170q51 -153 51 -416v-297q0 -418 -127 -535q-109 -127 -552 -127v-356h-484v772h272q365 0 365 93q29 2 42 255q0 416 -119 416q0 34 -449 34h-43q-534 0 -534 -68q-60 -40 -60 -238v-254 q0 -221 170 -221v-433h-9q-486 0 -577 195q-76 135 -76 501z" />
<glyph unicode="R" horiz-adv-x="2126" d="M60 670h1095q373 0 373 51q17 55 17 77v135q0 119 -144 119h-1341v408h1307q448 0 518 -60q152 -108 152 -348q9 -106 9 -119q0 -270 -85 -364q-106 -85 -221 -85h-42q17 -142 17 -433q0 -17 -17 -17h-458q-17 0 -17 17v212h-671v-1010h-492v1417z" />
<glyph unicode="S" horiz-adv-x="2075" d="M60 916v94q0 297 187 407q146 60 500 60h68v-365q-280 0 -280 -94v-51q0 -93 246 -93q976 -28 976 -68q126 -41 178 -136q60 -97 60 -314q0 -363 -204 -458q-112 -59 -925 -59h-51v382l85 -9h85q509 0 509 43q26 44 26 101q0 111 -153 111q-1137 29 -1137 93 q-170 88 -170 356z" />
<glyph unicode="T" horiz-adv-x="2066" d="M60 1044v416h1926v-416h-704v-560h-518v560h-704z" />
<glyph unicode="U" horiz-adv-x="2202" d="M60 467v305h484q0 -441 76 -441q37 -60 357 -60h263q348 0 348 94q41 0 50 407h484v-68q0 -485 -59 -611q-77 -139 -272 -203q-178 -43 -611 -43h-170q-656 0 -789 119q-161 107 -161 501z" />
<glyph unicode="V" horiz-adv-x="2287" d="M60 1884h543q718 -1499 781 -1596l288 611h535l-501 -1026h-662q0 13 -984 2011z" />
<glyph unicode="W" horiz-adv-x="3271" d="M60 1451v17h475q28 0 144 -373q26 -39 281 -781h17q76 294 347 1154h569q24 0 238 -755q25 -53 127 -408h-450l-187 713h-8q-289 -1084 -382 -1383l144 -399h-492q0 14 -823 2215zM2266 305q43 138 416 1163h509q0 -31 -441 -1163h-484z" />
<glyph unicode="X" horiz-adv-x="2779" d="M60 -127q0 8 806 806q-361 370 -517 543v8h636q204 -229 212 -229q789 883 798 883q72 8 119 8h585v-17q-829 -845 -1162 -1196v-9l517 -526h-653l-204 212l-441 -483h-696z" />
<glyph unicode="Y" horiz-adv-x="2228" d="M60 1477h628q520 -637 526 -637q0 20 323 416h611v-9q-576 -677 -679 -806v-288h-509v288q-62 79 -892 1010q-8 17 -8 26z" />
<glyph unicode="Z" horiz-adv-x="2109" d="M60 -119v382q1074 768 1129 823h-128l-101 -8v399h1035v-365q-19 -28 -560 -408l-586 -433h9q803 9 1094 9q8 0 68 8l9 -17v-390h-1969z" />
<glyph unicode="[" horiz-adv-x="875" d="M60 316v1607q3 17 17 17h739v-382h-264v-1242h-492zM60 -577v1607h492v-1242h264v-382h-739q-14 0 -17 17z" />
<glyph unicode="\" horiz-adv-x="1592" d="M26 1884h543l982 -2011h-541z" />
<glyph unicode="]" horiz-adv-x="875" d="M60 -212h264v1242h492v-1607q-3 -17 -17 -17h-739v382zM60 1558v382h739q14 0 17 -17v-1607h-492v1242h-264z" />
<glyph unicode="`" horiz-adv-x="601" d="M60 1363q0 31 20.5 51t53.5 20q20 0 40.5 -12t55.5 -47l291 -296h-69l-330 202q-31 20 -46.5 40t-15.5 42z" />
<glyph unicode="a" horiz-adv-x="2346" d="M60 144l678 1269h726l802 -1549h-534l-153 280h-1519zM790 492h611l-306 594z" />
<glyph unicode="b" horiz-adv-x="2143" d="M60 1086v382h594q372 0 1001 -8q157 0 280 -119q68 -116 68 -297q0 -307 -195 -357h-8v-8q163 0 237 -187q17 -80 17 -127v-594q0 -47 9 -119q0 -407 -399 -407q-601 -9 -959 -9h-178v391h365q212 0 602 8q94 0 94 221v407q0 229 -51 229q0 14 -60 17h-950v331h806 q187 0 187 85v68q-12 85 -85 85h-212q-367 0 -1163 8z" />
<glyph unicode="c" horiz-adv-x="2151" d="M60 467v186q0 634 110 671q116 127 289 127q173 34 577 34h322q505 0 603 -127q110 -87 110 -425v-34q0 -17 -17 -17h-458q-14 0 -42 153q-84 43 -289 43h-416q-254 0 -254 -94q-37 0 -43 -348q0 -365 136 -365q54 -13 382 -25v-399h-178q-551 0 -679 110 q-153 97 -153 510z" />
<glyph unicode="d" horiz-adv-x="2245" d="M60 -136v416h1146q415 0 415 76q43 17 51 204v212q0 208 -110 263q-104 26 -382 26h-619v407h288q1044 0 1044 -68q93 0 204 -195q68 -131 68 -509q0 -592 -170 -705q-84 -127 -857 -127h-1078z" />
<glyph unicode="e" horiz-adv-x="1914" d="M60 -127v382h1519v-382h-1519zM60 509v959h1765v-382h-1281v-220h958v-357h-1442z" />
<glyph unicode="f" horiz-adv-x="1769" d="M60 -764v2215q3 17 17 17h950v-382h-475v-297h1137v-356q0 -17 -17 -17h-1120v-1180h-492z" />
<glyph unicode="g" horiz-adv-x="2253" d="M60 467v314q0 515 187 602q44 71 526 102q235 0 288 8v-407h-8q-467 0 -467 -102q-27 0 -34 -220v-187q0 -251 68 -297q26 -17 102 -34q337 -8 492 -8q450 0 450 59q19 0 25 76v85h-636v323h1103q17 -3 17 -17v-26q0 -568 -59 -670q-128 -204 -510 -204q0 -17 -441 -17 h-93q-791 0 -866 136q-144 94 -144 484z" />
<glyph unicode="h" horiz-adv-x="2253" d="M60 -127v1213h518v-187h1086v985h509v-1629h-518v195h-1077v-560q0 -17 -17 -17h-501z" />
<glyph unicode="i" horiz-adv-x="658" d="M60 -129v1304h518v-1304h-518zM68 1355v493h510v-493h-510z" />
<glyph unicode="j" horiz-adv-x="1820" d="M60 433v136q3 16 17 16h475q0 -271 94 -271q105 -26 246 -26q339 0 339 85q17 0 17 60v704h492v-713q0 -359 -169 -458q-148 -102 -645 -102q-596 0 -739 119q-127 99 -127 450z" />
<glyph unicode="k" horiz-adv-x="2007" d="M60 -738v2647h492v-1001q525 491 645 594h730v-9l-908 -789l424 -356h-704l-187 153v-1239h-492z" />
<glyph unicode="l" horiz-adv-x="1786" d="M60 -110v891h518v-476h1128v-415h-1646z" />
<glyph unicode="m" horiz-adv-x="2440" d="M60 -110v1595h789q43 -59 204 -424h-526q8 -434 8 -637v-534h-475zM883 -110q0 19 348 797q178 391 357 798h772v-2223h-467v1807h-8q0 -12 -586 -1179h-416z" />
<glyph unicode="n" horiz-adv-x="2262" d="M60 271v1214h798l831 -1171v1646h493v-2070h-807q0 13 -712 1018q-96 134 -102 153h-9v-790h-492z" />
<glyph unicode="o" horiz-adv-x="2321" d="M60 569v263q0 509 195 585q67 93 891 93q836 0 900 -93q85 -32 144 -170q51 -153 51 -415v-297q0 -500 -195 -586q-132 -85 -671 -85v424h9q278 0 322 77q43 34 51 271q0 416 -119 416q0 34 -449 34h-43q-534 0 -534 -68q-60 -40 -60 -237v-255q0 -149 94 -204 q98 -34 297 -34v-424q-688 0 -756 144q-127 88 -127 561z" />
<glyph unicode="p" horiz-adv-x="2049" d="M60 -110v789h1052q340 0 340 59q25 40 25 153q0 139 -68 170q-128 25 -585 25h-764v399h1112q609 0 670 -127q127 -95 127 -450v-34q0 -420 -169 -509q-128 -85 -433 -85h-823v-390h-484z" />
<glyph unicode="q" horiz-adv-x="2321" d="M60 543v263q0 509 195 586q67 93 891 93q836 0 900 -93q85 -32 144 -170q51 -153 51 -416v-297q0 -418 -127 -535q-109 -127 -552 -127v-356h-484v772h272q365 0 365 93q29 2 42 255q0 416 -119 416q0 34 -449 34h-43q-534 0 -534 -68q-60 -40 -60 -238v-254 q0 -221 170 -221v-433h-9q-486 0 -577 195q-76 135 -76 501z" />
<glyph unicode="r" horiz-adv-x="2126" d="M60 670h1095q373 0 373 51q17 55 17 77v135q0 119 -144 119h-1341v408h1307q448 0 518 -60q152 -108 152 -348q9 -106 9 -119q0 -270 -85 -364q-106 -85 -221 -85h-42q17 -142 17 -433q0 -17 -17 -17h-458q-17 0 -17 17v212h-671v-1010h-492v1417z" />
<glyph unicode="s" horiz-adv-x="2075" d="M60 916v94q0 297 187 407q146 60 500 60h68v-365q-280 0 -280 -94v-51q0 -93 246 -93q976 -28 976 -68q126 -41 178 -136q60 -97 60 -314q0 -363 -204 -458q-112 -59 -925 -59h-51v382l85 -9h85q509 0 509 43q26 44 26 101q0 111 -153 111q-1137 29 -1137 93 q-170 88 -170 356z" />
<glyph unicode="t" horiz-adv-x="2066" d="M60 1044v416h1926v-416h-704v-560h-518v560h-704z" />
<glyph unicode="u" horiz-adv-x="2202" d="M60 467v305h484q0 -441 76 -441q37 -60 357 -60h263q348 0 348 94q41 0 50 407h484v-68q0 -485 -59 -611q-77 -139 -272 -203q-178 -43 -611 -43h-170q-656 0 -789 119q-161 107 -161 501z" />
<glyph unicode="v" horiz-adv-x="2287" d="M60 1884h543q718 -1499 781 -1596l288 611h535l-501 -1026h-662q0 13 -984 2011z" />
<glyph unicode="w" horiz-adv-x="3271" d="M60 1451v17h475q28 0 144 -373q26 -39 281 -781h17q76 294 347 1154h569q24 0 238 -755q25 -53 127 -408h-450l-187 713h-8q-289 -1084 -382 -1383l144 -399h-492q0 14 -823 2215zM2266 305q43 138 416 1163h509q0 -31 -441 -1163h-484z" />
<glyph unicode="x" horiz-adv-x="2779" d="M60 -127q0 8 806 806q-361 370 -517 543v8h636q204 -229 212 -229q789 883 798 883q72 8 119 8h585v-17q-829 -845 -1162 -1196v-9l517 -526h-653l-204 212l-441 -483h-696z" />
<glyph unicode="y" horiz-adv-x="2228" d="M60 1477h628q520 -637 526 -637q0 20 323 416h611v-9q-576 -677 -679 -806v-288h-509v288q-62 79 -892 1010q-8 17 -8 26z" />
<glyph unicode="z" horiz-adv-x="2109" d="M60 -119v382q1074 768 1129 823h-128l-101 -8v399h1035v-365q-19 -28 -560 -408l-586 -433h9q803 9 1094 9q8 0 68 8l9 -17v-390h-1969z" />
<glyph unicode="&#xa8;" horiz-adv-x="721" d="M60 1263q0 13 14 26l71 72q13 12 25 12q11 0 27 -14l69 -73q10 -14 10 -25q0 -13 -12 -27l-69 -75q-17 -17 -25 -17q-14 0 -25 12l-76 86q-9 12 -9 23zM425 1263q0 13 14 26l71 72q13 12 25 12q11 0 27 -13l69 -74q10 -14 10 -25q0 -13 -12 -26l-69 -76q-17 -17 -25 -17 q-14 0 -25 12l-76 87q-9 11 -9 22z" />
<glyph unicode="&#xad;" d="M57 241v518h1256v-518h-1256z" />
<glyph unicode="&#xb4;" horiz-adv-x="601" d="M60 1078l291 297q35 35 55.5 47t40.5 12q33 0 53.5 -20t20.5 -51q0 -22 -15.5 -42t-46.5 -40l-330 -203h-69z" />
<glyph unicode="&#xb8;" horiz-adv-x="548" d="M60 -290q85 -52 152 -52q66 0 94.5 21.5t28.5 66.5t-49 64q-40 16 -102 16q-16 0 -34 -2l48 176h63l-37 -104q32 4 62 5q86 0 134 -40.5t48 -113.5q0 -76 -58.5 -120.5t-160.5 -44.5q-109 0 -189 32v96z" />
<glyph unicode="&#xe0;" horiz-adv-x="2267" d="M30 144l678 1269h726l802 -1549h-534l-153 280h-1519zM441 1398v518h1256v-518h-1256zM760 492h611l-306 594z" />
<glyph unicode="&#xe2;" horiz-adv-x="2252" d="M28 144l678 1269h726l802 -1549h-534l-153 280h-1519zM439 1398v518h1256v-518h-1256zM758 492h611l-306 594z" />
<glyph unicode="&#xe4;" horiz-adv-x="2330" d="M60 144l678 1269h726l802 -1549h-534l-153 280h-1519zM644 1553v402h390v-402h-390zM790 492h611l-306 594zM1153 1553v402h390v-402h-390z" />
<glyph unicode="&#xe7;" horiz-adv-x="2137" d="M60 467v186q0 634 110 671q116 127 289 127q173 34 577 34h322q505 0 603 -127q110 -87 110 -425v-34q0 -17 -17 -17h-458q-14 0 -42 153q-84 43 -289 43h-416q-254 0 -254 -94q-37 0 -43 -348q0 -365 136 -365q54 -13 679 -25v-399h-475q-551 0 -679 110 q-153 97 -153 510zM618 -275q280 0 280 94v51q0 93 475 51v-94q0 -297 -187 -407q-146 -60 -500 -60h-68v365z" />
<glyph unicode="&#xe8;" horiz-adv-x="1887" d="M60 -127v382h1519v-382h-1519zM60 509v959h1765v-382h-1281v-220h958v-357h-1442zM459 1572v382h953v-382h-953z" />
<glyph unicode="&#xe9;" horiz-adv-x="1882" d="M60 -127v382h1519v-382h-1519zM60 509v959h1765v-382h-1281v-220h958v-357h-1442zM459 1572v382h953v-382h-953z" />
<glyph unicode="&#xea;" horiz-adv-x="1887" d="M60 -127v382h1519v-382h-1519zM60 509v959h1765v-382h-1281v-220h958v-357h-1442zM459 1572v382h953v-382h-953z" />
<glyph unicode="&#xeb;" horiz-adv-x="1908" d="M60 -127v382h1519v-382h-1519zM60 509v959h1765v-382h-1281v-220h958v-357h-1442zM385 1553v402h390v-402h-390zM894 1553v402h390v-402h-390z" />
<glyph unicode="&#xee;" horiz-adv-x="948" d="M-6 1518v382h953v-382h-953zM201 -129v1304h518v-1304h-518z" />
<glyph unicode="&#xef;" horiz-adv-x="925" d="M8 1499v402h390v-402h-390zM196 -129v1304h518v-1304h-518zM517 1499v402h390v-402h-390z" />
<glyph unicode="&#xf4;" horiz-adv-x="2311" d="M60 569v263q0 509 195 585q67 93 891 93q836 0 900 -93q85 -32 144 -170q51 -153 51 -415v-297q0 -500 -195 -586q-132 -85 -671 -85v424h9q278 0 322 77q43 34 51 271q0 416 -119 416q0 34 -449 34h-43q-534 0 -534 -68q-60 -40 -60 -237v-255q0 -149 94 -204 q98 -34 297 -34v-424q-688 0 -756 144q-127 88 -127 561zM665 1572v382h953v-382h-953z" />
<glyph unicode="&#xf6;" horiz-adv-x="2300" d="M60 569v263q0 509 195 585q67 93 891 93q836 0 900 -93q85 -32 144 -170q51 -153 51 -415v-297q0 -500 -195 -586q-132 -85 -671 -85v424h9q278 0 322 77q43 34 51 271q0 416 -119 416q0 34 -449 34h-43q-534 0 -534 -68q-60 -40 -60 -237v-255q0 -149 94 -204 q98 -34 297 -34v-424q-688 0 -756 144q-127 88 -127 561zM695 1559v402h390v-402h-390zM1204 1559v402h390v-402h-390z" />
<glyph unicode="&#xf9;" horiz-adv-x="2201" d="M60 467v305h484q0 -441 76 -441q37 -60 357 -60h263q348 0 348 94q41 0 50 407h484v-68q0 -485 -59 -611q-77 -139 -272 -203q-178 -43 -611 -43h-170q-656 0 -789 119q-161 107 -161 501zM665 1572v382h953v-382h-953z" />
<glyph unicode="&#xfb;" horiz-adv-x="2201" d="M60 467v305h484q0 -441 76 -441q37 -60 357 -60h263q348 0 348 94q41 0 50 407h484v-68q0 -485 -59 -611q-77 -139 -272 -203q-178 -43 -611 -43h-170q-656 0 -789 119q-161 107 -161 501zM665 1572v382h953v-382h-953z" />
<glyph unicode="&#xfc;" horiz-adv-x="2195" d="M60 467v305h484q0 -441 76 -441q37 -60 357 -60h263q348 0 348 94q41 0 50 407h484v-68q0 -485 -59 -611q-77 -139 -272 -203q-178 -43 -611 -43h-170q-656 0 -789 119q-161 107 -161 501zM639 1497v402h390v-402h-390zM1148 1497v402h390v-402h-390z" />
<glyph unicode="&#x2c6;" horiz-adv-x="722" d="M60 1079l232 355h118l232 -355h-58l-233 216l-233 -216h-58z" />
<glyph unicode="&#x2dc;" horiz-adv-x="714" d="M60 1132q19 106 68 158.5t129 52.5q46 -1 113 -24q64 -23 112 -23h4q36 0 58 20t36 66h54q-20 -103 -68.5 -154t-126.5 -51h-4q-50 0 -113 23q-66 24 -114 24q-39 0 -60.5 -20.5t-33.5 -71.5h-54z" />
<glyph unicode="&#x2000;" horiz-adv-x="980" />
<glyph unicode="&#x2001;" horiz-adv-x="1961" />
<glyph unicode="&#x2002;" horiz-adv-x="980" />
<glyph unicode="&#x2003;" horiz-adv-x="1961" />
<glyph unicode="&#x2004;" horiz-adv-x="653" />
<glyph unicode="&#x2005;" horiz-adv-x="490" />
<glyph unicode="&#x2006;" horiz-adv-x="326" />
<glyph unicode="&#x2007;" horiz-adv-x="326" />
<glyph unicode="&#x2008;" horiz-adv-x="245" />
<glyph unicode="&#x2009;" horiz-adv-x="392" />
<glyph unicode="&#x200a;" horiz-adv-x="108" />
<glyph unicode="&#x2010;" d="M57 241v518h1256v-518h-1256z" />
<glyph unicode="&#x2011;" d="M57 241v518h1256v-518h-1256z" />
<glyph unicode="&#x2012;" d="M57 241v518h1256v-518h-1256z" />
<glyph unicode="&#x2013;" horiz-adv-x="1138" d="M57 241v518h1024v-518h-1024z" />
<glyph unicode="&#x2014;" horiz-adv-x="2162" d="M57 241v518h2048v-518h-2048z" />
<glyph unicode="&#x202f;" horiz-adv-x="392" />
<glyph unicode="&#x205f;" horiz-adv-x="490" />
<glyph unicode="&#x25fc;" horiz-adv-x="1890" d="M0 0v1890h1890v-1890h-1890z" />
</font>
</defs>
</svg>
