<?xml version="1.0" standalone="no"?>
<!DOCTYPE svg PUBLIC "-//W3C//DTD SVG 1.1//EN" "http://www.w3.org/Graphics/SVG/1.1/DTD/svg11.dtd" >
<svg xmlns="http://www.w3.org/2000/svg">
<metadata></metadata>
<defs>
<font id="vipnagorgiallaregular" horiz-adv-x="1789" >
<font-face units-per-em="2048" ascent="1436" descent="-612" />
<missing-glyph horiz-adv-x="679" />
<glyph unicode="&#x28;C&#x29;" horiz-adv-x="1560" d="M88 324v706q0 100 26.5 163.5t88 99.5t160 48.5t241.5 12.5h348q145 0 244.5 -12.5t161 -48.5t88.5 -99.5t27 -163.5v-706q0 -102 -27 -165t-88.5 -98.5t-160.5 -48t-245 -12.5h-348q-145 0 -243.5 13.5t-159 48t-87 98t-26.5 164.5zM285 324q0 -39 16 -63.5t54 -38 t98.5 -18.5t150.5 -5h348q90 0 151.5 4t99.5 18.5t54.5 38t16.5 64.5v706q0 39 -16.5 63.5t-54.5 39t-99.5 18.5t-151.5 4h-348q-88 0 -149.5 -4t-99.5 -18.5t-54 -39t-16 -63.5v-706zM432 520v303q0 82 49 108.5t172 26.5h445v-145h-381q-63 0 -64 -41v-203q0 -41 64 -41 h381v-145h-445q-123 0 -172 25.5t-49 111.5z" />
<glyph unicode="&#x28;R&#x29;" horiz-adv-x="1560" d="M88 324v706q0 100 26.5 163.5t88 99.5t160 48.5t241.5 12.5h348q145 0 244.5 -12.5t161 -48.5t88.5 -99.5t27 -163.5v-706q0 -102 -27 -165t-88.5 -98.5t-160.5 -48t-245 -12.5h-348q-145 0 -243.5 13.5t-159 48t-87 98t-26.5 164.5zM285 324q0 -39 16 -63.5t54 -38 t98.5 -18.5t150.5 -5h348q90 0 151.5 4t99.5 18.5t54.5 38t16.5 64.5v706q0 39 -16.5 63.5t-54.5 39t-99.5 18.5t-151.5 4h-348q-88 0 -149.5 -4t-99.5 -18.5t-54 -39t-16 -63.5v-706zM438 383v575h486q61 0 100 -7t61.5 -22.5t30.5 -41t8 -64.5v-92q0 -39 -16 -60.5 t-45 -27.5q25 -6 45 -27.5t20 -56.5v-176h-219v156q0 20 -11 30.5t-44 10.5h-199v-197h-217zM655 711h211q29 0 36 10t7 31v26q0 16 -8 25.5t-35 9.5h-211v-102z" />
<glyph horiz-adv-x="0" />
<glyph unicode="&#xd;" horiz-adv-x="679" />
<glyph horiz-adv-x="679" />
<glyph unicode=" "  horiz-adv-x="679" />
<glyph unicode="&#x09;" horiz-adv-x="679" />
<glyph unicode="&#xa0;" horiz-adv-x="679" />
<glyph unicode="!" horiz-adv-x="710" d="M84 1354h545l-49 -879h-445zM94 0v309h522v-309h-522z" />
<glyph unicode="&#x22;" horiz-adv-x="931" d="M70 823zM70 1354h327l-41 -531h-247zM535 1354h327l-41 -531h-247z" />
<glyph unicode="#" horiz-adv-x="1259" d="M43 340v213h244l55 254h-199v211h246l72 336h215l-76 -336h221l74 336h211l-76 -336h187v-211h-234l-57 -254h194v-213h-241l-78 -340h-205l76 340h-221l-76 -340h-209l74 340h-197zM498 553h219l57 254h-219z" />
<glyph unicode="$" horiz-adv-x="1318" d="M68 199v278h768q55 0 55 45q0 47 -55 47h-412q-182 0 -269 51.5t-87 176.5v86q0 70 21.5 115.5t67.5 72.5t116.5 38t166.5 11h144v234h161v-234h390v-280h-631q-59 0 -60 -49q0 -47 60 -48h387q106 0 177 -14t112 -43t57 -73t16 -105v-49q0 -74 -16 -123t-57 -80 t-112 -44t-177 -13h-146v-199h-161v199h-516z" />
<glyph unicode="%" horiz-adv-x="2363" d="M88 0zM88 788v381q0 57 15 93t50 56.5t90.5 28t134.5 7.5h340q82 0 137.5 -7.5t90.5 -28t50 -56t15 -93.5v-381q0 -59 -15 -95t-50 -56.5t-90.5 -27.5t-137.5 -7h-340q-80 0 -135 7t-90 27.5t-50 56.5t-15 95zM391 848q0 -23 12 -29t57 -6h183q43 0 55 6t12 29v260 q0 23 -12 30t-55 7h-183q-45 0 -57 -7.5t-12 -29.5v-260zM559 0l1002 1354h239l-999 -1354h-242zM1352 186v381q0 57 15 93t50 56.5t90.5 28t134.5 7.5h340q82 0 137.5 -7.5t90.5 -28t50 -56t15 -93.5v-381q0 -59 -15 -95t-50 -56.5t-90.5 -27.5t-137.5 -7h-340 q-80 0 -135 7t-90 27.5t-50 56.5t-15 95zM1655 246q0 -23 12 -29t57 -6h183q43 0 55 6t12 29v260q0 23 -12 30t-55 7h-183q-45 0 -57 -7.5t-12 -29.5v-260z" />
<glyph unicode="&#x26;" horiz-adv-x="1775" d="M88 324v153q0 92 47 138.5t107 60.5q-57 16 -101.5 60t-44.5 126v168q0 98 25.5 161.5t85 99.5t157 49.5t242.5 13.5h815v-344h-735q-51 0 -71.5 -18.5t-20.5 -65.5t17.5 -69.5t74.5 -22.5h1040v-314h-319v-69q0 -35 4 -55.5t19.5 -32t45 -15.5t80.5 -4h170v-344h-284 q-88 0 -156.5 12.5t-124.5 32.5q-53 -20 -121.5 -32.5t-154.5 -12.5h-279q-143 0 -242.5 13.5t-161 48t-88 98t-26.5 164.5zM594 432q0 -47 17.5 -67.5t64.5 -20.5h92q51 0 81 4t45 15.5t19.5 32t4.5 55.5v69h-244q-41 0 -60.5 -17.5t-19.5 -70.5z" />
<glyph unicode="'" horiz-adv-x="464" d="M70 1354h327l-41 -531h-247z" />
<glyph unicode="(" horiz-adv-x="868" d="M158 645q0 565 309 1061h360q-168 -223 -253 -490.5t-85 -570.5q0 -549 340 -1063h-362q-309 504 -309 1063z" />
<glyph unicode=")" horiz-adv-x="868" d="M39 -418q340 514 340 1063q0 303 -85 570.5t-253 490.5h358q156 -248 233 -512t77 -549q0 -563 -310 -1063h-360z" />
<glyph unicode="*" horiz-adv-x="1185" d="M63 799l424 86l-354 237l88 86l314 -256l-15 402h133l-8 -400l303 273l94 -97l-340 -243l418 -78l-26 -111l-414 93l197 -349l-107 -49l-182 371l-152 -381l-119 53l191 355l-414 -109z" />
<glyph unicode="+" horiz-adv-x="1222" d="M98 557v238h394v393h237v-393h395v-238h-395v-395h-237v395h-394z" />
<glyph unicode="," horiz-adv-x="686" d="M82 23v286h520v-334q0 -98 -66.5 -153t-166.5 -55h-148v122h53q94 0 95 91v43h-287z" />
<glyph unicode="-" horiz-adv-x="854" d="M35 518v238h782v-238h-782z" />
<glyph unicode="." horiz-adv-x="686" d="M82 0v309h520v-309h-520z" />
<glyph unicode="/" horiz-adv-x="1351" d="M0 0l1001 1354h351l-998 -1354h-354z" />
<glyph unicode="0" horiz-adv-x="1845" d="M88 324v706q0 102 26.5 166t88 98.5t160 47t241.5 12.5h633q145 0 244.5 -12.5t161 -48.5t88 -99.5t26.5 -163.5v-706q0 -102 -26.5 -165t-88 -98.5t-161 -48t-244.5 -12.5h-633q-145 0 -243.5 13.5t-159 48t-87 98t-26.5 164.5zM604 436q0 -29 5 -46t21.5 -27.5 t46.5 -14.5t79 -4h338q49 0 78.5 4t46 14.5t21.5 28t5 45.5v482q0 27 -5 45t-21.5 28t-46 14.5t-78.5 4.5h-338q-49 0 -79 -4.5t-46.5 -14.5t-21.5 -27.5t-5 -45.5v-482z" />
<glyph unicode="1" horiz-adv-x="768" d="M31 1010v344h639v-1354h-516v1010h-123z" />
<glyph unicode="2" horiz-adv-x="1832" d="M92 0v528q0 154 104.5 235t335.5 81h594q53 0 75 19.5t22 66.5t-21.5 65.5t-75.5 18.5h-368q-94 0 -123 -17.5t-29 -64.5h-514v102q0 100 27.5 164t89 98.5t161 47t244.5 12.5h609q141 0 240.5 -12.5t161 -47t89 -98t27.5 -164.5v-243q0 -68 -25.5 -120.5t-85 -88 t-155 -55t-232.5 -19.5h-561q-76 0 -76 -68v-96h1135v-344h-1649z" />
<glyph unicode="3" horiz-adv-x="1806" d="M70 324v149h516v-22q0 -35 4 -55.5t19.5 -32t45 -15.5t80.5 -4h395q47 0 63.5 20.5t16.5 67.5q0 53 -18 70.5t-59 17.5h-457v314h444q57 0 73.5 22.5t16.5 69.5t-19.5 65.5t-70.5 18.5h-381q-49 0 -78.5 -4.5t-46 -15.5t-22.5 -31.5t-6 -53.5v-22h-516v147 q0 100 26.5 163.5t87 98.5t159.5 48.5t245 13.5h610q143 0 241.5 -13.5t158 -49.5t85 -99.5t25.5 -161.5v-168q0 -82 -44 -126t-99 -60q29 -6 56.5 -21.5t49 -40t34.5 -58.5t13 -79v-153q0 -100 -27.5 -164t-89 -98.5t-161 -48t-242.5 -13.5h-610q-145 0 -244.5 13.5 t-160 48t-87 98t-26.5 164.5z" />
<glyph unicode="4" horiz-adv-x="1648" d="M47 209v299l725 846h612v-807h215v-338h-215v-209h-516v209h-821zM649 547h219v258z" />
<glyph unicode="5" horiz-adv-x="1832" d="M92 324v102h518v-10q0 -35 21.5 -53.5t83.5 -18.5h436q41 0 57.5 19.5t16.5 62.5q0 49 -16.5 72.5t-57.5 23.5h-1059v832h1641v-344h-1123v-158h686q217 0 331 -85t114 -239v-204q0 -102 -27.5 -166t-89 -98.5t-161 -47t-242.5 -12.5h-611q-145 0 -244.5 13.5t-160 48 t-87 98t-26.5 164.5z" />
<glyph unicode="6" horiz-adv-x="1802" d="M88 324v710q0 100 26.5 164t87 97.5t160 46t244.5 12.5h660q129 0 219 -18.5t145.5 -56.5t81 -98.5t25.5 -146.5v-106h-516v12q0 41 -31 57.5t-121 16.5h-379q-51 0 -67.5 -18.5t-16.5 -47.5v-106h713q201 0 309.5 -71t108.5 -204v-243q0 -100 -25.5 -164t-86 -98.5 t-161 -48t-247.5 -13.5h-611q-143 0 -242.5 13.5t-161 48t-88 98t-26.5 164.5zM606 428q0 -49 19.5 -66.5t99.5 -17.5h424q72 0 72 76q0 47 -14.5 71.5t-57.5 24.5h-543v-88z" />
<glyph unicode="7" horiz-adv-x="1566" d="M45 1014v340h1475v-217l-834 -1137h-620l763 1014h-784z" />
<glyph unicode="8" horiz-adv-x="1828" d="M88 324v153q0 92 47 138.5t107 60.5q-57 16 -101.5 60t-44.5 126v168q0 98 25.5 161.5t85 99.5t157 49.5t242.5 13.5h617q143 0 241.5 -13.5t157.5 -49.5t85 -99.5t26 -161.5v-168q0 -82 -44 -126t-102 -60q59 -14 107.5 -60.5t48.5 -138.5v-153q0 -100 -27.5 -164 t-89 -98.5t-161 -48t-242.5 -13.5h-617q-143 0 -242.5 13.5t-161 48t-88 98t-26.5 164.5zM594 432q0 -47 17.5 -67.5t64.5 -20.5h477q47 0 64.5 20.5t17.5 67.5q0 53 -19.5 70.5t-60.5 17.5h-481q-41 0 -60.5 -17.5t-19.5 -70.5zM594 926q0 -47 17.5 -69.5t74.5 -22.5h457 q57 0 74.5 22.5t17.5 69.5t-20.5 65.5t-71.5 18.5h-457q-51 0 -71.5 -18.5t-20.5 -65.5z" />
<glyph unicode="9" horiz-adv-x="1822" d="M88 319v107h514v-12q0 -41 32 -57.5t122 -16.5h379q49 0 65.5 18.5t16.5 47.5v106h-711q-203 0 -310.5 70.5t-107.5 203.5v244q0 100 25.5 163.5t86 98.5t160 48.5t246.5 13.5h611q143 0 242.5 -13.5t160.5 -48.5t89 -98.5t28 -163.5v-711q0 -102 -27 -164.5t-88 -96 t-160.5 -46t-244.5 -12.5h-660q-129 0 -218 18.5t-144.5 56.5t-81 98t-25.5 146zM602 934q0 -47 14.5 -71.5t57.5 -24.5h543v88q0 49 -19.5 66.5t-99.5 17.5h-424q-72 0 -72 -76z" />
<glyph unicode=":" horiz-adv-x="784" d="M131 0v309h520v-309h-520zM131 739v310h520v-310h-520z" />
<glyph unicode=";" horiz-adv-x="784" d="M131 23v286h520v-334q0 -98 -66.5 -153t-166.5 -55h-146v122h52q94 0 94 91v43h-287zM131 739v310h520v-310h-520z" />
<glyph unicode="&#x3c;" horiz-adv-x="1222" d="M98 510v332l1026 350v-248l-833 -268l833 -268v-248z" />
<glyph unicode="=" horiz-adv-x="1222" d="M98 260v238h1026v-238h-1026zM98 854v238h1026v-238h-1026z" />
<glyph unicode="&#x3e;" horiz-adv-x="1222" d="M98 160v248l834 268l-834 268v248l1026 -350v-332z" />
<glyph unicode="?" horiz-adv-x="1703" d="M33 887v147q0 98 24.5 160.5t85 98.5t158.5 48.5t246 12.5h588q147 0 246.5 -12.5t158.5 -48.5t85 -98t26 -161v-223q0 -154 -112 -222.5t-351 -68.5h-180q-47 0 -47 -45v-24h-416v86q0 76 15 133t53 95t103.5 57.5t164.5 19.5h194q59 0 60 84q0 51 -15.5 69.5 t-46.5 18.5h-405q-82 0 -116 -19.5t-34 -87.5v-20h-485zM489 0v309h523v-309h-523z" />
<glyph unicode="@" horiz-adv-x="1603" d="M88 -137v1022q0 78 12.5 131t47 85t99 46t169.5 14h811q86 0 142 -14t89 -48t45.5 -89.5t12.5 -137.5v-735h-744q-104 0 -145 49.5t-41 151.5v111q0 35 5 70.5t23.5 63t52 45t89.5 17.5h360v-330h133v494q0 53 -41 53h-696q-63 0 -63 -53v-829q0 -53 63 -54h1004v-346 h-1100q-98 0 -162 14.5t-100.5 48t-51 87t-14.5 133.5zM768 403q0 -88 51 -88h129v193h-129q-25 0 -38 -29.5t-13 -75.5z" />
<glyph unicode="A" d="M16 0l549 1354h660l549 -1354h-549l-74 197h-492l-75 -197h-568zM758 528h291l-146 433z" />
<glyph unicode="B" horiz-adv-x="1806" d="M98 0v1354h1106q143 0 241.5 -13.5t158 -49.5t85 -99.5t25.5 -161.5v-168q0 -82 -44 -126t-101 -60q59 -14 107 -60.5t48 -138.5v-153q0 -100 -27.5 -164t-89 -98.5t-160.5 -48t-243 -13.5h-1106zM618 344h519q47 0 63.5 20.5t16.5 67.5q0 53 -19.5 70.5t-60.5 17.5h-519 v-176zM618 834h508q55 0 73 22.5t18 69.5t-19.5 65.5t-71.5 18.5h-508v-176z" />
<glyph unicode="C" horiz-adv-x="1722" d="M88 324v706q0 98 26.5 161.5t88 99.5t161 49.5t244.5 13.5h1041v-344h-893q-82 0 -115 -22.5t-33 -69.5v-482q0 -92 148 -92h893v-344h-1041q-145 0 -244.5 13.5t-161 49t-88 98t-26.5 163.5z" />
<glyph unicode="D" horiz-adv-x="1806" d="M98 0v1354h1100q143 0 242.5 -13.5t161 -48.5t89 -98.5t27.5 -163.5v-706q0 -100 -25.5 -163t-87 -98.5t-160.5 -49t-247 -13.5h-1100zM616 344h441q147 0 147 92v479q0 49 -28.5 72t-118.5 23h-441v-666z" />
<glyph unicode="E" horiz-adv-x="1769" d="M98 0v1354h1606v-344h-1086v-170h531v-324h-531v-172h1086v-344h-1606z" />
<glyph unicode="F" horiz-adv-x="1679" d="M98 0v1354h1549v-344h-1029v-164h545v-336h-545v-510h-520z" />
<glyph unicode="G" horiz-adv-x="1804" d="M88 324v706q0 96 25.5 158.5t86 99.5t160 51.5t248.5 14.5h1102v-344h-954q-96 0 -125 -21.5t-29 -73.5v-479q0 -51 31 -71.5t123 -20.5h456v168h-452v338h950v-850h-1102q-147 0 -247.5 13.5t-161 50t-86 99t-25.5 161.5z" />
<glyph unicode="H" horiz-adv-x="1822" d="M98 0v1354h520v-504h588v504h518v-1354h-518v506h-588v-506h-520z" />
<glyph unicode="I" horiz-adv-x="712" d="M98 0v1354h516v-1354h-516z" />
<glyph unicode="J" horiz-adv-x="1560" d="M31 0v344h768q86 0 117.5 18.5t31.5 73.5v918h518v-1030q0 -100 -26.5 -163t-88 -98.5t-160.5 -49t-243 -13.5h-917z" />
<glyph unicode="K" horiz-adv-x="1822" d="M98 0v1354h516v-658l592 658h563l-485 -533h70q215 0 302 -73.5t87 -223.5v-524h-516v410q0 94 -152 94h-461v-504h-516z" />
<glyph unicode="L" horiz-adv-x="1355" d="M98 0v1354h520v-1010h701v-344h-1221z" />
<glyph unicode="M" horiz-adv-x="2121" d="M98 0v1354h580l401 -842l402 842h542v-1354h-483v578l-250 -578h-461l-251 578v-578h-480z" />
<glyph unicode="N" horiz-adv-x="1798" d="M98 0v1354h533l573 -686v686h494v-1354h-508l-600 649v-649h-492z" />
<glyph unicode="O" horiz-adv-x="1896" d="M88 324v706q0 100 26.5 163.5t88 99.5t160 48.5t241.5 12.5h686q145 0 244.5 -12.5t161 -48.5t88 -99.5t26.5 -163.5v-706q0 -102 -26.5 -165t-88 -98.5t-160.5 -48t-245 -12.5h-686q-145 0 -243.5 13.5t-159 48t-87 98t-26.5 164.5zM604 436q0 -51 29 -71.5t123 -20.5 h389q90 0 120.5 19.5t30.5 72.5v482q0 53 -30.5 72.5t-120.5 19.5h-389q-86 0 -119 -18.5t-33 -73.5v-482z" />
<glyph unicode="P" horiz-adv-x="1765" d="M98 0v1354h1100q147 0 246.5 -13.5t161 -48.5t87 -98.5t25.5 -163.5v-266q0 -102 -27.5 -164.5t-89 -98.5t-161 -48.5t-242.5 -12.5h-582v-440h-518zM616 774h486q61 0 81.5 20.5t20.5 73.5v52q0 47 -21.5 68.5t-80.5 21.5h-486v-236z" />
<glyph unicode="Q" horiz-adv-x="1935" d="M88 326v704q0 90 21.5 151.5t79 100.5t159 55.5t258.5 16.5h635q145 0 234.5 -17.5t137.5 -57.5t64.5 -105.5t16.5 -161.5v-666h241v-344h-1329q-143 0 -241.5 12.5t-160 47t-89 98t-27.5 166.5zM604 438q0 -92 96 -92h494v569q0 53 -19.5 74t-84.5 21h-334 q-96 0 -124 -21.5t-28 -73.5v-477z" />
<glyph unicode="R" horiz-adv-x="1792" d="M98 0v1354h1145q143 0 235.5 -16.5t143.5 -54.5t70.5 -99.5t19.5 -153.5v-211q0 -90 -40 -140t-105 -69q59 -14 106 -62t47 -132v-416h-514v369q0 47 -24.5 69.5t-102.5 22.5h-465v-461h-516zM614 772h494q68 0 83 22.5t15 69.5v66q0 39 -17.5 59.5t-80.5 20.5h-494v-238 z" />
<glyph unicode="S" horiz-adv-x="1748" d="M68 0v344h1067q41 0 54 20.5t13 67.5q0 41 -15.5 58.5t-51.5 17.5h-676q-195 0 -293 74.5t-98 208.5v243q0 86 19 147.5t68.5 99.5t136.5 55.5t222 17.5h1038v-340h-936q-41 0 -53 -20.5t-12 -61.5t16.5 -61.5t57.5 -20.5h665q209 0 301 -84t92 -238v-204 q0 -84 -21.5 -144.5t-71.5 -100.5t-131 -59.5t-199 -19.5h-1192z" />
<glyph unicode="T" horiz-adv-x="1572" d="M37 1010v344h1499v-344h-489v-1010h-519v1010h-491z" />
<glyph unicode="U" horiz-adv-x="1890" d="M92 324v1030h518v-918q0 -53 31 -72.5t121 -19.5h373q90 0 119.5 19.5t29.5 72.5v918h514v-1030q0 -98 -25.5 -162t-86 -99.5t-160 -49t-244.5 -13.5h-670q-145 0 -244.5 13.5t-161 49t-88 98t-26.5 163.5z" />
<glyph unicode="V" d="M16 1354h584l313 -862l324 862h537l-557 -1354h-652z" />
<glyph unicode="W" horiz-adv-x="2805" d="M18 1354h566l282 -858l289 858h549l285 -858l284 858h516l-508 -1354h-639l-241 698l-240 -698h-637z" />
<glyph unicode="X" horiz-adv-x="1716" d="M25 0l475 735l-418 619h594l215 -383l225 383h541l-422 -647l457 -707h-639l-224 406l-223 -406h-581z" />
<glyph unicode="Y" horiz-adv-x="1687" d="M8 1354h643l211 -353l213 353h604l-589 -781v-573h-517v573z" />
<glyph unicode="Z" horiz-adv-x="1570" d="M59 0v242l766 770h-766v342h1452v-269l-716 -741h716v-344h-1452z" />
<glyph unicode="[" horiz-adv-x="763" d="M158 -420v2126h565v-201h-264v-1724h264v-201h-565z" />
<glyph unicode="\" horiz-adv-x="1351" d="M0 1354h350l1002 -1354h-357z" />
<glyph unicode="]" horiz-adv-x="763" d="M39 -219h266v1724h-266v201h565v-2126h-565v201z" />
<glyph unicode="^" horiz-adv-x="999" d="M63 563l271 791h332l270 -791h-244l-192 598l-193 -598h-244z" />
<glyph unicode="_" horiz-adv-x="1136" d="M-16 -233h1167v-187h-1167v187z" />
<glyph unicode="`" horiz-adv-x="978" d="M98 1540h441l342 -391h-361z" />
<glyph unicode="a" horiz-adv-x="1771" d="M72 303v51q0 86 17 140.5t72.5 85t157 43t269.5 12.5h567v10q0 59 -26.5 77.5t-102.5 18.5h-891v308h1018q145 0 244.5 -13.5t161 -49.5t88 -99.5t26.5 -161.5v-725h-1091q-143 0 -240.5 12.5t-158 46t-86 93t-25.5 151.5zM575 369q0 -59 46 -60h534v125h-534 q-45 0 -46 -65z" />
<glyph unicode="b" horiz-adv-x="1783" d="M98 0v1354h518v-305h562q139 0 237 -13.5t160.5 -49.5t91.5 -98.5t29 -162.5v-401q0 -102 -27 -165t-87 -98.5t-159.5 -48t-244.5 -12.5h-1080zM616 344h469q53 0 73 15.5t20 50.5v215q0 77 -91 77h-2h-469v-358z" />
<glyph unicode="c" horiz-adv-x="1566" d="M88 324v401q0 96 26.5 158.5t87 99.5t159 51.5t243.5 14.5h883v-347h-817q-37 0 -51.5 -19t-14.5 -48v-225q0 -29 15.5 -47.5t56.5 -18.5h811v-344h-883q-145 0 -243.5 13.5t-159 49t-87 99t-26.5 162.5z" />
<glyph unicode="d" horiz-adv-x="1783" d="M88 324v401q0 100 28.5 162.5t91 98.5t161 49.5t237.5 13.5h561v305h519v-1354h-1080q-145 0 -244.5 12.5t-160 48t-87 98t-26.5 165.5zM606 410q0 -35 19.5 -50.5t72.5 -15.5h469v358h-469q-92 0 -92 -77v-215z" />
<glyph unicode="e" horiz-adv-x="1759" d="M88 371v356q0 170 121 246t360 76h752q201 0 285 -68t84 -211v-84q0 -80 -16.5 -131t-57.5 -81t-113.5 -41t-185.5 -11h-713q0 -35 6 -56.5t22.5 -31.5t46.5 -13.5t77 -3.5h870v-317h-1022q-137 0 -234.5 18.5t-160 62.5t-92 114.5t-29.5 175.5zM578 680q0 -53 53 -53 h508q47 0 47 53q0 47 -47 47h-508q-53 0 -53 -47z" />
<glyph unicode="f" horiz-adv-x="1013" d="M98 0v1028q0 102 28 165.5t89 99.5t160.5 48.5t242.5 12.5h377v-273h-266q-39 0 -61.5 -2t-33.5 -9t-14.5 -20.5t-3.5 -35.5v-31h379v-272h-379v-711h-518z" />
<glyph unicode="g" horiz-adv-x="1779" d="M86 379v346q0 100 26.5 162.5t87 98.5t159 49.5t243.5 13.5h1079v-1143q0 -102 -24.5 -167t-73.5 -99.5t-124 -47t-175 -12.5h-477v344h289q37 0 52 17.5t15 52.5v59h-561q-145 0 -244.5 13.5t-160 48.5t-86 98t-25.5 166zM602 446q0 -65 66 -65h2h493v321h-493 q-45 0 -56.5 -11t-11.5 -56v-189z" />
<glyph unicode="h" horiz-adv-x="1839" d="M98 0v1354h518v-400q51 94 199 95h412q137 0 235.5 -14.5t162 -50.5t93 -98.5t29.5 -160.5v-725h-516v635q0 33 -15.5 50t-58.5 17h-491q-25 0 -37.5 -19t-12.5 -48v-635h-518z" />
<glyph unicode="i" horiz-adv-x="718" d="M98 0v948h523v-948h-523zM98 1044v310h523v-310h-523z" />
<glyph unicode="j" horiz-adv-x="741" d="M-166 -76h135q55 0 86 4t46.5 12.5t19.5 21.5t4 32v954h518v-1042q0 -100 -26.5 -164t-87 -99.5t-160 -49t-244.5 -13.5h-291v344zM125 1044v310h518v-310h-518z" />
<glyph unicode="k" horiz-adv-x="1796" d="M98 0v1354h516v-824l523 519h516l-387 -361h65q195 0 303.5 -82t108.5 -235v-371h-516v315q0 66 -47 66h-566v-381h-516z" />
<glyph unicode="l" horiz-adv-x="712" d="M98 0v1354h516v-1354h-516z" />
<glyph unicode="m" horiz-adv-x="2488" d="M98 0v1049h518v-68q45 68 199 68h143q113 0 190 -5.5t126 -17.5t75.5 -32.5t43.5 -49.5q57 104 286 105h197q145 0 244.5 -14.5t160 -51.5t87 -99.5t26.5 -158.5v-725h-512v635q0 67 -48 67h-1h-277q-27 0 -39 -19t-12 -48v-635h-518v633q0 41 -18.5 55t-46.5 14h-256 q-25 0 -37.5 -19t-12.5 -48v-635h-518z" />
<glyph unicode="n" horiz-adv-x="1839" d="M98 0v1049h518v-68q45 68 199 68h412q137 0 235.5 -14.5t162 -50.5t93 -98.5t29.5 -160.5v-725h-516v635q0 29 -13.5 48t-46.5 19h-505q-25 0 -37.5 -19t-12.5 -48v-635h-518z" />
<glyph unicode="o" horiz-adv-x="1849" d="M98 324v401q0 100 28 162.5t90.5 98.5t161.5 49.5t243 13.5h610q141 0 239.5 -13.5t161 -49.5t91 -99.5t28.5 -161.5v-401q0 -100 -27.5 -164t-89 -98.5t-161 -48t-242.5 -13.5h-610q-143 0 -242.5 12.5t-162 47t-90.5 98t-28 166.5zM616 410q0 -41 13.5 -53.5 t60.5 -12.5h484q35 0 47 13.5t12 52.5v225q0 37 -16.5 52t-49.5 15h-477q-37 0 -55.5 -18t-18.5 -49v-225z" />
<glyph unicode="p" horiz-adv-x="1783" d="M98 -420v1469h1080q143 0 241.5 -13.5t159.5 -48.5t89 -98.5t28 -163.5v-399q0 -100 -27 -164t-88 -99.5t-160.5 -49t-242.5 -13.5h-562v-420h-518zM616 346h478q51 0 67.5 16.5t16.5 49.5v223q0 67 -68 67h-2h-492v-356z" />
<glyph unicode="q" horiz-adv-x="1783" d="M88 326v399q0 98 25.5 161.5t86 99.5t160 49.5t246.5 13.5h1080v-1469h-521v420h-559q-145 0 -243.5 13.5t-160 49t-88 99t-26.5 164.5zM604 412q0 -66 58 -66h503v356h-491q-70 0 -70 -67v-223z" />
<glyph unicode="r" horiz-adv-x="1329" d="M98 0v1049h516v-68q43 68 199 68h477v-347h-624q-25 0 -38.5 -19t-13.5 -48v-635h-516z" />
<glyph unicode="s" horiz-adv-x="1779" d="M68 0v317h1081q61 0 61 50q0 55 -61 55h-676q-207 0 -306 58.5t-99 201.5v96q0 80 24.5 132.5t76.5 83t132 43t191 12.5h1085v-320h-924q-67 0 -67 -53q0 -55 67 -55h650q123 0 201.5 -16.5t125.5 -49.5t65.5 -84t18.5 -121v-55q0 -84 -18.5 -140.5t-65.5 -90t-126 -49 t-201 -15.5h-1235z" />
<glyph unicode="t" horiz-adv-x="1026" d="M98 324v1030h518v-305h256v-326h-256v-313q0 -41 14.5 -52.5t61.5 -13.5h301v-344h-377q-145 0 -243.5 13.5t-159.5 50t-88 99t-27 161.5z" />
<glyph unicode="u" horiz-adv-x="1808" d="M92 326v723h516v-637q0 -29 12.5 -47.5t36.5 -18.5h484q27 0 39 18.5t12 47.5v637h516v-1049h-516v70q-35 -70 -197 -70h-383q-150 0 -249 14.5t-159.5 50t-86 99t-25.5 162.5z" />
<glyph unicode="v" horiz-adv-x="1812" d="M16 1049h602l308 -666l321 666h551l-573 -1049h-641z" />
<glyph unicode="w" horiz-adv-x="2830" d="M18 1047h572l278 -664l285 664h578l276 -664l281 664h524l-498 -1047h-663l-238 539l-235 -539h-662z" />
<glyph unicode="x" horiz-adv-x="1734" d="M25 0l481 569l-424 478h588l221 -283l227 283h557l-426 -500l461 -547h-639l-229 313l-224 -313h-593z" />
<glyph unicode="y" horiz-adv-x="1759" d="M86 379v670h516v-603q0 -65 66 -65h2h473v668h518v-1143q0 -102 -24.5 -167t-74 -99.5t-124 -47t-174.5 -12.5h-457v344h268q39 0 53.5 17.5t14.5 52.5v59h-541q-145 0 -244.5 13.5t-160 48.5t-86 98t-25.5 166z" />
<glyph unicode="z" horiz-adv-x="1570" d="M59 0v276l654 422h-654v351h1424v-271l-584 -426h612v-352h-1452z" />
<glyph unicode="{" horiz-adv-x="790" d="M121 573v140q92 8 155.5 52t63.5 107v529q0 160 73.5 232.5t221.5 72.5h117v-201h-37q-45 0 -73 -7t-42 -21.5t-18 -39t-4 -57.5v-483q0 -117 -60.5 -173t-148.5 -81q88 -27 148.5 -83t60.5 -171v-481q0 -35 4 -58.5t18 -39t42 -22.5t73 -7h37v-201h-117q-147 0 -221 73 t-74 232v529q0 63 -63.5 107t-155.5 52z" />
<glyph unicode="|" horiz-adv-x="679" d="M190 -420v2126h299v-2126h-299z" />
<glyph unicode="}" horiz-adv-x="770" d="M39 -219h37q45 0 72.5 7t42 22.5t19.5 39t5 58.5v481q0 115 59.5 171t147.5 83q-88 25 -147.5 81t-59.5 173v483q0 68 -24.5 96.5t-114.5 28.5h-37v201h117q147 0 221 -72.5t74 -232.5v-529q0 -63 63.5 -107t155.5 -52v-140q-92 -8 -155.5 -52t-63.5 -107v-529 q0 -160 -74 -232.5t-221 -72.5h-117v201z" />
<glyph unicode="~" horiz-adv-x="1222" d="M98 453v84q0 147 62.5 225t195.5 78h88q66 0 112 -27t86 -57.5t79 -57t90 -26.5h47q39 0 54.5 20.5t15.5 71.5v76h196v-84q0 -147 -62.5 -225t-195.5 -78h-88q-66 0 -111.5 26.5t-85.5 57t-80 57.5t-89 27h-47q-39 0 -54.5 -20.5t-15.5 -72.5v-75h-197z" />
<glyph unicode="&#xa1;" horiz-adv-x="710" d="M84 -420l49 879h445l51 -879h-545zM94 625v309h522v-309h-522z" />
<glyph unicode="&#xa2;" horiz-adv-x="1083" d="M55 596v209q0 82 20.5 136t70 86t130 44t201.5 12h68v271h133v-271h350v-299h-543q-41 0 -54 -16t-13 -43v-53q0 -25 13 -40.5t54 -15.5h543v-301h-350v-315h-133v315h-68q-121 0 -201.5 12.5t-130 43t-70 85t-20.5 140.5z" />
<glyph unicode="&#xa3;" horiz-adv-x="1521" d="M43 0v344h123v223h-96v201h96v262q0 100 26.5 162.5t88 98.5t161 49.5t244.5 13.5h737v-344h-589q-147 0 -148 -92v-150h399v-201h-399v-223h803v-344h-1446z" />
<glyph unicode="&#xa5;" horiz-adv-x="1554" d="M25 1354h542l238 -353l219 353h506l-451 -592h387v-184h-430v-166h430v-187h-430v-225h-516v225h-426v187h426v166h-426v184h375z" />
<glyph unicode="&#xa6;" horiz-adv-x="679" d="M190 393h299v-813h-299v813zM190 924v782h299v-782h-299z" />
<glyph unicode="&#xa7;" horiz-adv-x="1853" d="M53 629v69q0 78 36 117t108 72q-45 57 -45 155t27.5 161t89 99.5t159.5 50t242 13.5h528v-317h-459q-70 0 -69 -56q0 -53 69 -53h615q446 0 446 -254v-45q0 -121 -137 -176q20 -33 28.5 -68t8.5 -73q0 -104 -27.5 -168t-89 -98.5t-160 -46t-241.5 -11.5h-842v317h797 q61 0 61 50q0 47 -51 55h-705q-201 0 -295 51t-94 156zM573 674q0 -68 68 -68h602q51 4 51 66q0 68 -57 67h-596q-68 0 -68 -65z" />
<glyph unicode="&#xa8;" horiz-adv-x="1374" d="M98 1149v291h502v-291h-502zM772 1149v291h502v-291h-502z" />
<glyph unicode="&#xaa;" horiz-adv-x="1034" d="M61 942v27q0 49 10.5 80.5t41 50t87 26t150.5 7.5h295v4q0 20 -14.5 24t-44.5 4h-492v189h561q80 0 136.5 -7.5t90 -28t49 -57t15.5 -94.5v-399h-600q-80 0 -134 7t-88 26.5t-48.5 53.5t-14.5 87zM354 977q0 -20 15 -21h276v43h-276q-14 0 -15 -22z" />
<glyph unicode="&#xab;" horiz-adv-x="927" d="M35 219zM35 461v424l391 237v-276l-252 -176l252 -172v-279zM498 461v424l391 237v-276l-252 -176l252 -172v-279z" />
<glyph unicode="&#xac;" horiz-adv-x="1038" d="M98 518v238h842v-455h-221v217h-621z" />
<glyph unicode="&#xad;" horiz-adv-x="854" d="M35 518v238h782v-238h-782z" />
<glyph unicode="&#xaf;" horiz-adv-x="1038" d="M98 1206v217h842v-217h-842z" />
<glyph unicode="&#xb0;" horiz-adv-x="1056" d="M88 813v373q0 53 13.5 86t45 51t84 24.5t129.5 6.5h336q76 0 128.5 -7.5t85 -25.5t46 -51t13.5 -84v-373q0 -53 -14.5 -87t-46 -52.5t-84 -25.5t-128.5 -7h-336q-74 0 -125 6t-83.5 24.5t-48 52.5t-15.5 89zM342 885q0 -23 11.5 -30t47.5 -7h250q35 0 47.5 6t12.5 31v227 q0 23 -10.5 28t-49.5 5h-250q-41 0 -50 -7.5t-9 -25.5v-227z" />
<glyph unicode="&#xb1;" horiz-adv-x="1222" d="M98 0zM98 2h1026v-238h-1026v238zM98 557v238h394v393h237v-393h395v-238h-395v-395h-237v395h-394z" />
<glyph unicode="&#xb2;" horiz-adv-x="1069" d="M74 602v297q0 88 60.5 129t189.5 41h317q23 0 31 9t8 30q0 18 -8 28.5t-31 10.5h-199q-43 0 -56 -7.5t-13 -29.5h-299v61q0 57 15 93t50 55.5t90.5 27t135.5 7.5h327q80 0 135.5 -7.5t90 -27t50 -55t15.5 -93.5v-133q0 -78 -62.5 -115.5t-215.5 -37.5h-304 q-14 0 -21 -10.5t-7 -24.5v-37h610v-211h-909zM74 602z" />
<glyph unicode="&#xb3;" horiz-adv-x="1052" d="M59 602zM59 788v82h303v-14q0 -29 10.5 -36t57.5 -7h213q18 0 24.5 6t6.5 27q0 23 -6 29t-23 6h-233v194h227q23 0 29 7t6 30q0 33 -35 33h-207q-45 0 -57.5 -8.5t-12.5 -36.5v-11h-303v80q0 57 15.5 93t49.5 56.5t89 28t137 7.5h330q80 0 135 -8.5t88 -29t47.5 -56 t14.5 -91.5v-92q0 -39 -15.5 -62.5t-40.5 -35.5q25 -14 43.5 -40t18.5 -67v-84q0 -59 -15.5 -95t-50.5 -56.5t-90 -27.5t-135 -7h-330q-82 0 -137 7t-89 27.5t-49.5 56.5t-15.5 95z" />
<glyph unicode="&#xb4;" horiz-adv-x="978" d="M98 1149l342 391h441l-420 -391h-363z" />
<glyph unicode="&#xb6;" horiz-adv-x="1290" d="M59 870v488h1133v-1655h-160v1450h-375v-1450h-161v1167h-437z" />
<glyph unicode="&#xb7;" horiz-adv-x="686" d="M82 559v309h520v-309h-520zM82 559z" />
<glyph unicode="&#xb8;" horiz-adv-x="718" d="M98 -98h523v-312q0 -98 -67 -150t-167 -52h-147v114h51q96 0 96 92v41h-289v267z" />
<glyph unicode="&#xb9;" horiz-adv-x="481" d="M37 602zM37 1145v209h366v-752h-301v543h-65z" />
<glyph unicode="&#xba;" horiz-adv-x="1075" d="M78 952v215q0 57 15.5 94t50 57.5t90 28t135.5 7.5h329q78 0 133.5 -7.5t90 -28t51 -57t16.5 -94.5v-215q0 -57 -15.5 -93t-50 -56.5t-90 -27.5t-135.5 -7h-329q-80 0 -135.5 7t-90 26.5t-50 55.5t-15.5 95zM379 999q0 -16 5 -19t22 -3h262q18 0 18 22v121q0 25 -22 25 h-258q-27 0 -27 -25v-121z" />
<glyph unicode="&#xbb;" horiz-adv-x="927" d="M35 219v279l252 172l-252 176v276l391 -237v-424zM35 219zM498 219v279l252 172l-252 176v276l391 -237v-424z" />
<glyph unicode="&#xbc;" horiz-adv-x="1681" d="M86 0l1002 1354h239l-999 -1354h-242zM86 0zM96 1145v209h366v-752h-301v543h-65zM733 113v178l399 461h345v-435h116v-204h-116v-113h-302v113h-442zM1069 317h106v136z" />
<glyph unicode="&#xbd;" horiz-adv-x="1902" d="M86 0l1002 1354h239l-999 -1354h-242zM86 0zM96 1145v209h366v-752h-301v543h-65zM905 0v297q0 88 60.5 129t189.5 41h317q23 0 31 9t8 30q0 18 -8 28.5t-31 10.5h-199q-43 0 -56 -7.5t-13 -29.5h-299v61q0 57 15 93t50 55.5t90.5 27t135.5 7.5h327q80 0 135.5 -7.5 t90 -27t50 -55t15.5 -93.5v-133q0 -78 -62.5 -115.5t-215.5 -37.5h-304q-14 0 -21 -10.5t-7 -24.5v-37h610v-211h-909z" />
<glyph unicode="&#xbe;" horiz-adv-x="2211" d="M88 0zM88 788v82h303v-14q0 -29 10.5 -36t57.5 -7h213q18 0 24.5 6t6.5 27q0 23 -6 29t-23 6h-233v194h227q23 0 29 7t6 30q0 33 -35 33h-207q-45 0 -57.5 -8.5t-12.5 -36.5v-11h-303v80q0 57 15.5 93t49.5 56.5t89 28t137 7.5h330q80 0 135 -8.5t88 -29t47.5 -56 t14.5 -91.5v-92q0 -39 -15.5 -62.5t-40.5 -35.5q25 -14 43.5 -40t18.5 -67v-84q0 -59 -15.5 -95t-50.5 -56.5t-90 -27.5t-135 -7h-330q-82 0 -137 7t-89 27.5t-49.5 56.5t-15.5 95zM585 0l1002 1354h239l-999 -1354h-242zM1264 113v178l399 461h345v-435h116v-204h-116v-113 h-302v113h-442zM1600 317h106v136z" />
<glyph unicode="&#xbf;" horiz-adv-x="1703" d="M33 -100v223q0 154 112.5 222.5t352.5 68.5h180q45 0 45 45v24h416v-86q0 -76 -15.5 -133t-53.5 -95t-102.5 -57.5t-162.5 -19.5h-195q-59 0 -59 -84q0 -51 15.5 -69.5t45.5 -18.5h404q84 0 117.5 19.5t33.5 87.5v20h484v-147q0 -98 -24.5 -161t-84 -98.5t-159 -48 t-246.5 -12.5h-586q-147 0 -247.5 12.5t-160 48t-85 98t-25.5 161.5zM674 625v309h522v-309h-522z" />
<glyph unicode="&#xc0;" d="M16 0l549 1354h660l549 -1354h-549l-74 197h-492l-75 -197h-568zM16 0zM403 1845h441l342 -391h-361zM758 528h291l-146 433z" />
<glyph unicode="&#xc1;" d="M16 0l549 1354h660l549 -1354h-549l-74 197h-492l-75 -197h-568zM16 0zM602 1454l342 391h441l-420 -391h-363zM758 528h291l-146 433z" />
<glyph unicode="&#xc2;" d="M16 0l549 1354h660l549 -1354h-549l-74 197h-492l-75 -197h-568zM16 0zM442 1454l242 391h424l237 -391h-276l-176 252l-172 -252h-279zM758 528h291l-146 433z" />
<glyph unicode="&#xc3;" d="M16 0l549 1354h660l549 -1354h-549l-74 197h-492l-75 -197h-568zM16 0zM436 1491v76q0 279 232 278h76q59 0 101 -24.5t78 -53t70.5 -53.5t79.5 -25h41q35 0 49.5 18.5t14.5 65.5v72h174v-78q0 -135 -55.5 -205.5t-174.5 -70.5h-77q-57 0 -99.5 23.5t-78 53t-70.5 53 t-80 23.5h-41q-35 0 -49.5 -17t-14.5 -65v-71h-176zM758 528h291l-146 433z" />
<glyph unicode="&#xc4;" d="M16 0l549 1354h660l549 -1354h-549l-74 197h-492l-75 -197h-568zM16 0zM307 1454v291h502v-291h-502zM758 528h291l-146 433zM981 1454v291h502v-291h-502z" />
<glyph unicode="&#xc5;" d="M16 0l549 1354h660l549 -1354h-549l-74 197h-492l-75 -197h-568zM16 0zM571 1556v121q0 53 13.5 86t46 51.5t85 24.5t130.5 6h96q78 0 130 -7t85 -25.5t46 -51.5t13 -84v-121q0 -53 -14 -87t-46 -53t-85 -26.5t-129 -7.5h-96q-74 0 -125 6.5t-85 24.5t-49.5 53t-15.5 90z M758 528h291l-146 433zM762 1587q0 -31 14 -40t68 -9h100q47 0 63.5 8t16.5 41v57q0 31 -14.5 38t-65.5 7h-100q-55 0 -68.5 -8t-13.5 -37v-57z" />
<glyph unicode="&#xc6;" horiz-adv-x="2498" d="M16 0l549 1354h1868v-344h-1034l28 -170h451v-324h-395l28 -172h922v-344h-1356l-30 197h-388l-75 -197h-568zM758 528h237l-75 482z" />
<glyph unicode="&#xc7;" horiz-adv-x="1722" d="M88 0zM88 324v706q0 98 26.5 161.5t88 99.5t161 49.5t244.5 13.5h1041v-344h-893q-82 0 -115 -22.5t-33 -69.5v-482q0 -92 148 -92h893v-344h-1041q-145 0 -244.5 13.5t-161 49t-88 98t-26.5 163.5zM659 -98h523v-312q0 -98 -67 -150t-167 -52h-147v114h51q96 0 96 92v41 h-289v267z" />
<glyph unicode="&#xc8;" horiz-adv-x="1769" d="M98 0v1354h1606v-344h-1086v-170h531v-324h-531v-172h1086v-344h-1606zM98 0zM393 1845h441l342 -391h-361z" />
<glyph unicode="&#xc9;" horiz-adv-x="1769" d="M98 0v1354h1606v-344h-1086v-170h531v-324h-531v-172h1086v-344h-1606zM98 0zM592 1454l342 391h441l-420 -391h-363z" />
<glyph unicode="&#xca;" horiz-adv-x="1769" d="M98 0v1354h1606v-344h-1086v-170h531v-324h-531v-172h1086v-344h-1606zM98 0zM434 1454l242 391h424l237 -391h-276l-176 252l-172 -252h-279z" />
<glyph unicode="&#xcb;" horiz-adv-x="1769" d="M98 0v1354h1606v-344h-1086v-170h531v-324h-531v-172h1086v-344h-1606zM98 0zM297 1454v291h502v-291h-502zM971 1454v291h502v-291h-502z" />
<glyph unicode="&#xcc;" horiz-adv-x="712" d="M-131 1845h441l342 -391h-361zM0 0zM98 0v1354h516v-1354h-516z" />
<glyph unicode="&#xcd;" horiz-adv-x="712" d="M67 1454l342 391h441l-420 -391h-363zM68 0zM98 0v1354h516v-1354h-516z" />
<glyph unicode="&#xce;" horiz-adv-x="712" d="M-92 1454l242 391h424l237 -391h-276l-176 252l-172 -252h-279zM0 0zM98 0v1354h516v-1354h-516z" />
<glyph unicode="&#xcf;" horiz-adv-x="907" d="M-131 1454v291h502v-291h-502zM0 0zM194 0v1354h516v-1354h-516zM543 1454v291h502v-291h-502z" />
<glyph unicode="&#xd0;" horiz-adv-x="1855" d="M39 516v324h98v514h1100q143 0 242.5 -13.5t161 -48.5t88 -98.5t26.5 -163.5v-706q0 -100 -25.5 -163t-86 -98.5t-160 -49t-246.5 -13.5h-1100v516h-98zM653 344h441q150 0 149 92v479q0 49 -29.5 72t-119.5 23h-441v-170h287v-324h-287v-172z" />
<glyph unicode="&#xd1;" horiz-adv-x="1798" d="M98 0v1354h533l573 -686v686h494v-1354h-508l-600 649v-649h-492zM98 0zM438 1491v76q0 279 232 278h76q59 0 101 -24.5t78 -53t70.5 -53.5t79.5 -25h41q35 0 49.5 18.5t14.5 65.5v72h174v-78q0 -135 -55.5 -205.5t-174.5 -70.5h-77q-57 0 -99.5 23.5t-78 53t-70.5 53 t-80 23.5h-41q-35 0 -49.5 -17t-14.5 -65v-71h-176z" />
<glyph unicode="&#xd2;" horiz-adv-x="1896" d="M88 0zM88 324v706q0 100 26.5 163.5t88 99.5t160 48.5t241.5 12.5h686q145 0 244.5 -12.5t161 -48.5t88 -99.5t26.5 -163.5v-706q0 -102 -26.5 -165t-88 -98.5t-160.5 -48t-245 -12.5h-686q-145 0 -243.5 13.5t-159 48t-87 98t-26.5 164.5zM456 1845h441l342 -391h-361z M604 436q0 -51 29 -71.5t123 -20.5h389q90 0 120.5 19.5t30.5 72.5v482q0 53 -30.5 72.5t-120.5 19.5h-389q-86 0 -119 -18.5t-33 -73.5v-482z" />
<glyph unicode="&#xd3;" horiz-adv-x="1896" d="M88 0zM88 324v706q0 100 26.5 163.5t88 99.5t160 48.5t241.5 12.5h686q145 0 244.5 -12.5t161 -48.5t88 -99.5t26.5 -163.5v-706q0 -102 -26.5 -165t-88 -98.5t-160.5 -48t-245 -12.5h-686q-145 0 -243.5 13.5t-159 48t-87 98t-26.5 164.5zM604 436q0 -51 29 -71.5 t123 -20.5h389q90 0 120.5 19.5t30.5 72.5v482q0 53 -30.5 72.5t-120.5 19.5h-389q-86 0 -119 -18.5t-33 -73.5v-482zM655 1454l342 391h441l-420 -391h-363z" />
<glyph unicode="&#xd4;" horiz-adv-x="1896" d="M88 0zM88 324v706q0 100 26.5 163.5t88 99.5t160 48.5t241.5 12.5h686q145 0 244.5 -12.5t161 -48.5t88 -99.5t26.5 -163.5v-706q0 -102 -26.5 -165t-88 -98.5t-160.5 -48t-245 -12.5h-686q-145 0 -243.5 13.5t-159 48t-87 98t-26.5 164.5zM497 1454l242 391h424 l237 -391h-276l-176 252l-172 -252h-279zM604 436q0 -51 29 -71.5t123 -20.5h389q90 0 120.5 19.5t30.5 72.5v482q0 53 -30.5 72.5t-120.5 19.5h-389q-86 0 -119 -18.5t-33 -73.5v-482z" />
<glyph unicode="&#xd5;" horiz-adv-x="1896" d="M88 0zM88 324v706q0 100 26.5 163.5t88 99.5t160 48.5t241.5 12.5h686q145 0 244.5 -12.5t161 -48.5t88 -99.5t26.5 -163.5v-706q0 -102 -26.5 -165t-88 -98.5t-160.5 -48t-245 -12.5h-686q-145 0 -243.5 13.5t-159 48t-87 98t-26.5 164.5zM489 1491v76q0 279 232 278h76 q59 0 101 -24.5t78 -53t70.5 -53.5t79.5 -25h41q35 0 49.5 18.5t14.5 65.5v72h174v-78q0 -135 -55.5 -205.5t-174.5 -70.5h-77q-57 0 -99.5 23.5t-78 53t-70.5 53t-80 23.5h-41q-35 0 -49.5 -17t-14.5 -65v-71h-176zM604 436q0 -51 29 -71.5t123 -20.5h389q90 0 120.5 19.5 t30.5 72.5v482q0 53 -30.5 72.5t-120.5 19.5h-389q-86 0 -119 -18.5t-33 -73.5v-482z" />
<glyph unicode="&#xd6;" horiz-adv-x="1896" d="M88 0zM88 324v706q0 100 26.5 163.5t88 99.5t160 48.5t241.5 12.5h686q145 0 244.5 -12.5t161 -48.5t88 -99.5t26.5 -163.5v-706q0 -102 -26.5 -165t-88 -98.5t-160.5 -48t-245 -12.5h-686q-145 0 -243.5 13.5t-159 48t-87 98t-26.5 164.5zM360 1454v291h502v-291h-502z M604 436q0 -51 29 -71.5t123 -20.5h389q90 0 120.5 19.5t30.5 72.5v482q0 53 -30.5 72.5t-120.5 19.5h-389q-86 0 -119 -18.5t-33 -73.5v-482zM1034 1454v291h502v-291h-502z" />
<glyph unicode="&#xd7;" horiz-adv-x="1222" d="M164 397l280 279l-278 276l170 170l276 -278l279 278l168 -170l-279 -276l279 -279l-168 -170l-279 281l-278 -281z" />
<glyph unicode="&#xd8;" horiz-adv-x="1896" d="M88 -98l131 149q-72 35 -101.5 98.5t-29.5 174.5v706q0 100 26.5 163.5t88 99.5t160 48.5t241.5 12.5h766l88 98h352l-133 -149q72 -35 102.5 -98.5t30.5 -174.5v-706q0 -102 -26.5 -165t-88 -98.5t-160.5 -48t-245 -12.5h-762l-86 -98h-354zM604 485l463 525h-311 q-86 0 -119 -18.5t-33 -73.5v-433zM831 344h314q90 0 120.5 19.5t30.5 72.5v434z" />
<glyph unicode="&#xd9;" horiz-adv-x="1890" d="M92 0zM92 324v1030h518v-918q0 -53 31 -72.5t121 -19.5h373q90 0 119.5 19.5t29.5 72.5v918h514v-1030q0 -98 -25.5 -162t-86 -99.5t-160 -49t-244.5 -13.5h-670q-145 0 -244.5 13.5t-161 49t-88 98t-26.5 163.5zM454 1845h441l342 -391h-361z" />
<glyph unicode="&#xda;" horiz-adv-x="1890" d="M92 0zM92 324v1030h518v-918q0 -53 31 -72.5t121 -19.5h373q90 0 119.5 19.5t29.5 72.5v918h514v-1030q0 -98 -25.5 -162t-86 -99.5t-160 -49t-244.5 -13.5h-670q-145 0 -244.5 13.5t-161 49t-88 98t-26.5 163.5zM653 1454l342 391h441l-420 -391h-363z" />
<glyph unicode="&#xdb;" horiz-adv-x="1890" d="M92 0zM92 324v1030h518v-918q0 -53 31 -72.5t121 -19.5h373q90 0 119.5 19.5t29.5 72.5v918h514v-1030q0 -98 -25.5 -162t-86 -99.5t-160 -49t-244.5 -13.5h-670q-145 0 -244.5 13.5t-161 49t-88 98t-26.5 163.5zM493 1454l242 391h424l237 -391h-276l-176 252l-172 -252 h-279z" />
<glyph unicode="&#xdc;" horiz-adv-x="1890" d="M92 0zM92 324v1030h518v-918q0 -53 31 -72.5t121 -19.5h373q90 0 119.5 19.5t29.5 72.5v918h514v-1030q0 -98 -25.5 -162t-86 -99.5t-160 -49t-244.5 -13.5h-670q-145 0 -244.5 13.5t-161 49t-88 98t-26.5 163.5zM356 1454v291h502v-291h-502zM1030 1454v291h502v-291 h-502z" />
<glyph unicode="&#xdd;" horiz-adv-x="1687" d="M8 0zM8 1354h643l211 -353l213 353h604l-589 -781v-573h-517v573zM551 1454l342 391h441l-420 -391h-363z" />
<glyph unicode="&#xde;" horiz-adv-x="1775" d="M98 0v1354h518v-232h582q143 0 242.5 -13t161 -50t89 -99.5t27.5 -160.5v-269q0 -102 -25.5 -164.5t-86 -97.5t-160.5 -47t-248 -12h-582v-209h-518zM616 551h502q49 0 67.5 20.5t18.5 90.5q0 72 -18.5 93t-67.5 21h-502v-225z" />
<glyph unicode="&#xdf;" horiz-adv-x="1841" d="M92 0v1034q0 100 26.5 163t87 97.5t160 47t246.5 12.5h611q145 0 242.5 -11.5t155.5 -46t81.5 -97t23.5 -165.5v-205q0 -45 -20 -86t-78 -63q55 -20 88 -57t33 -95v-204q0 -102 -28.5 -166t-92 -98.5t-163 -47t-242.5 -12.5h-523v344h465q39 0 58.5 18.5t19.5 65.5v33 q0 41 -18.5 58.5t-53.5 17.5h-471v292h467q78 0 78 66v53q0 37 -21.5 51.5t-80.5 14.5h-379q-90 0 -121 -26.5t-31 -69.5v-918h-520z" />
<glyph unicode="&#xe0;" horiz-adv-x="1771" d="M72 0zM72 303v51q0 86 17 140.5t72.5 85t157 43t269.5 12.5h567v10q0 59 -26.5 77.5t-102.5 18.5h-891v308h1018q145 0 244.5 -13.5t161 -49.5t88 -99.5t26.5 -161.5v-725h-1091q-143 0 -240.5 12.5t-158 46t-86 93t-25.5 151.5zM395 1540h441l342 -391h-361zM575 369 q0 -59 46 -60h534v125h-534q-45 0 -46 -65z" />
<glyph unicode="&#xe1;" horiz-adv-x="1771" d="M72 0zM72 303v51q0 86 17 140.5t72.5 85t157 43t269.5 12.5h567v10q0 59 -26.5 77.5t-102.5 18.5h-891v308h1018q145 0 244.5 -13.5t161 -49.5t88 -99.5t26.5 -161.5v-725h-1091q-143 0 -240.5 12.5t-158 46t-86 93t-25.5 151.5zM575 369q0 -59 46 -60h534v125h-534 q-45 0 -46 -65zM594 1149l342 391h441l-420 -391h-363z" />
<glyph unicode="&#xe2;" horiz-adv-x="1771" d="M72 0zM72 303v51q0 86 17 140.5t72.5 85t157 43t269.5 12.5h567v10q0 59 -26.5 77.5t-102.5 18.5h-891v308h1018q145 0 244.5 -13.5t161 -49.5t88 -99.5t26.5 -161.5v-725h-1091q-143 0 -240.5 12.5t-158 46t-86 93t-25.5 151.5zM434 1149l242 391h424l237 -391h-276 l-176 252l-172 -252h-279zM575 369q0 -59 46 -60h534v125h-534q-45 0 -46 -65z" />
<glyph unicode="&#xe3;" horiz-adv-x="1771" d="M72 0zM72 303v51q0 86 17 140.5t72.5 85t157 43t269.5 12.5h567v10q0 59 -26.5 77.5t-102.5 18.5h-891v308h1018q145 0 244.5 -13.5t161 -49.5t88 -99.5t26.5 -161.5v-725h-1091q-143 0 -240.5 12.5t-158 46t-86 93t-25.5 151.5zM428 1186v76q0 279 232 278h76 q59 0 101 -24.5t78 -53t70.5 -53.5t79.5 -25h41q35 0 49.5 18.5t14.5 65.5v72h174v-78q0 -135 -55.5 -205.5t-174.5 -70.5h-77q-57 0 -99.5 23.5t-78 53t-70.5 53t-80 23.5h-41q-35 0 -49.5 -17t-14.5 -65v-71h-176zM575 369q0 -59 46 -60h534v125h-534q-45 0 -46 -65z" />
<glyph unicode="&#xe4;" horiz-adv-x="1771" d="M72 0zM72 303v51q0 86 17 140.5t72.5 85t157 43t269.5 12.5h567v10q0 59 -26.5 77.5t-102.5 18.5h-891v308h1018q145 0 244.5 -13.5t161 -49.5t88 -99.5t26.5 -161.5v-725h-1091q-143 0 -240.5 12.5t-158 46t-86 93t-25.5 151.5zM297 1149v291h502v-291h-502zM575 369 q0 -59 46 -60h534v125h-534q-45 0 -46 -65zM971 1149v291h502v-291h-502z" />
<glyph unicode="&#xe5;" horiz-adv-x="1771" d="M72 0zM72 303v51q0 86 17 140.5t72.5 85t157 43t269.5 12.5h567v10q0 59 -26.5 77.5t-102.5 18.5h-891v308h1018q145 0 244.5 -13.5t161 -49.5t88 -99.5t26.5 -161.5v-725h-1091q-143 0 -240.5 12.5t-158 46t-86 93t-25.5 151.5zM561 1251v121q0 53 13.5 86t46 51.5 t85 24.5t130.5 6h96q78 0 130 -7t85 -25.5t46 -51.5t13 -84v-121q0 -53 -14 -87t-46 -53t-85 -26.5t-129 -7.5h-96q-74 0 -125 6.5t-85 24.5t-49.5 53t-15.5 90zM575 369q0 -59 46 -60h534v125h-534q-45 0 -46 -65zM752 1282q0 -31 14 -40t68 -9h100q47 0 63.5 8t16.5 41v57 q0 31 -14.5 38t-65.5 7h-100q-55 0 -68.5 -8t-13.5 -37v-57z" />
<glyph unicode="&#xe6;" horiz-adv-x="2834" d="M72 303v51q0 86 17 140.5t72.5 85t157 43t269.5 12.5h567v10q0 59 -26.5 77.5t-102.5 18.5h-891v308h2259q203 0 287 -68t84 -211v-84q0 -80 -16.5 -131t-58.5 -81t-114.5 -41t-185.5 -11h-711q0 -35 5.5 -56.5t21.5 -31.5t46 -13.5t77 -3.5h870v-317h-2117 q-143 0 -240.5 12.5t-158 46t-86 93t-25.5 151.5zM575 369q0 -59 46 -60h534v125h-534q-45 0 -46 -65zM1651 680q0 -53 53 -53h510q45 0 45 53q0 47 -45 47h-510q-53 0 -53 -47z" />
<glyph unicode="&#xe7;" horiz-adv-x="1566" d="M88 0zM88 324v401q0 96 26.5 158.5t87 99.5t159 51.5t243.5 14.5h883v-347h-817q-37 0 -51.5 -19t-14.5 -48v-225q0 -29 15.5 -47.5t56.5 -18.5h811v-344h-883q-145 0 -243.5 13.5t-159 49t-87 99t-26.5 162.5zM559 -98h523v-312q0 -98 -67 -150t-167 -52h-147v114h51 q96 0 96 92v41h-289v267z" />
<glyph unicode="&#xe8;" horiz-adv-x="1759" d="M88 0zM88 371v356q0 170 121 246t360 76h752q201 0 285 -68t84 -211v-84q0 -80 -16.5 -131t-57.5 -81t-113.5 -41t-185.5 -11h-713q0 -35 6 -56.5t22.5 -31.5t46.5 -13.5t77 -3.5h870v-317h-1022q-137 0 -234.5 18.5t-160 62.5t-92 114.5t-29.5 175.5zM389 1540h441 l342 -391h-361zM578 680q0 -53 53 -53h508q47 0 47 53q0 47 -47 47h-508q-53 0 -53 -47z" />
<glyph unicode="&#xe9;" horiz-adv-x="1759" d="M88 0zM88 371v356q0 170 121 246t360 76h752q201 0 285 -68t84 -211v-84q0 -80 -16.5 -131t-57.5 -81t-113.5 -41t-185.5 -11h-713q0 -35 6 -56.5t22.5 -31.5t46.5 -13.5t77 -3.5h870v-317h-1022q-137 0 -234.5 18.5t-160 62.5t-92 114.5t-29.5 175.5zM578 680 q0 -53 53 -53h508q47 0 47 53q0 47 -47 47h-508q-53 0 -53 -47zM587 1149l342 391h441l-420 -391h-363z" />
<glyph unicode="&#xea;" horiz-adv-x="1759" d="M88 0zM88 371v356q0 170 121 246t360 76h752q201 0 285 -68t84 -211v-84q0 -80 -16.5 -131t-57.5 -81t-113.5 -41t-185.5 -11h-713q0 -35 6 -56.5t22.5 -31.5t46.5 -13.5t77 -3.5h870v-317h-1022q-137 0 -234.5 18.5t-160 62.5t-92 114.5t-29.5 175.5zM428 1149l242 391 h424l237 -391h-276l-176 252l-172 -252h-279zM578 680q0 -53 53 -53h508q47 0 47 53q0 47 -47 47h-508q-53 0 -53 -47z" />
<glyph unicode="&#xeb;" horiz-adv-x="1759" d="M88 0zM88 371v356q0 170 121 246t360 76h752q201 0 285 -68t84 -211v-84q0 -80 -16.5 -131t-57.5 -81t-113.5 -41t-185.5 -11h-713q0 -35 6 -56.5t22.5 -31.5t46.5 -13.5t77 -3.5h870v-317h-1022q-137 0 -234.5 18.5t-160 62.5t-92 114.5t-29.5 175.5zM291 1149v291h502 v-291h-502zM578 680q0 -53 53 -53h508q47 0 47 53q0 47 -47 47h-508q-53 0 -53 -47zM965 1149v291h502v-291h-502z" />
<glyph unicode="&#xec;" horiz-adv-x="811" d="M-37 1540h441l342 -391h-361zM0 0zM190 0v948h523v-948h-523z" />
<glyph unicode="&#xed;" horiz-adv-x="825" d="M69 1149l342 391h441l-420 -391h-363zM70 0zM98 0v948h523v-948h-523z" />
<glyph unicode="&#xee;" horiz-adv-x="851" d="M-23 1149l242 391h424l237 -391h-276l-176 252l-172 -252h-279zM0 0zM166 0v948h523v-948h-523z" />
<glyph unicode="&#xef;" horiz-adv-x="1044" d="M-64 1149v291h502v-291h-502zM0 0zM260 0v948h523v-948h-523zM610 1149v291h502v-291h-502z" />
<glyph unicode="&#xf0;" horiz-adv-x="1783" d="M88 324v163q0 98 25.5 161t86 99.5t160 50t246.5 13.5h559v129q0 18 -3 31.5t-18.5 21.5t-46 12.5t-85.5 4.5h-357l-137 -125h-215l139 125h-227v344h612l131 119h216l-134 -119h127q145 0 244.5 -13.5t160 -49.5t87.5 -99.5t27 -163.5v-631q0 -397 -361 -397h-719 q-143 0 -242.5 13.5t-161 48t-88 98t-26.5 164.5zM602 418q0 -41 18.5 -57.5t53.5 -16.5h436q43 0 61.5 17.5t18.5 58.5v39q0 29 -14.5 47t-53.5 18h-448q-72 0 -72 -65v-41z" />
<glyph unicode="&#xf1;" horiz-adv-x="1839" d="M98 0v1049h518v-68q45 68 199 68h412q137 0 235.5 -14.5t162 -50.5t93 -98.5t29.5 -160.5v-725h-516v635q0 29 -13.5 48t-46.5 19h-505q-25 0 -37.5 -19t-12.5 -48v-635h-518zM98 0zM460 1186v76q0 279 232 278h76q59 0 101 -24.5t78 -53t70.5 -53.5t79.5 -25h41 q35 0 49.5 18.5t14.5 65.5v72h174v-78q0 -135 -55.5 -205.5t-174.5 -70.5h-77q-57 0 -99.5 23.5t-78 53t-70.5 53t-80 23.5h-41q-35 0 -49.5 -17t-14.5 -65v-71h-176z" />
<glyph unicode="&#xf2;" horiz-adv-x="1849" d="M98 0zM98 324v401q0 100 28 162.5t90.5 98.5t161.5 49.5t243 13.5h610q141 0 239.5 -13.5t161 -49.5t91 -99.5t28.5 -161.5v-401q0 -100 -27.5 -164t-89 -98.5t-161 -48t-242.5 -13.5h-610q-143 0 -242.5 12.5t-162 47t-90.5 98t-28 166.5zM434 1540h441l342 -391h-361z M616 410q0 -41 13.5 -53.5t60.5 -12.5h484q35 0 47 13.5t12 52.5v225q0 37 -16.5 52t-49.5 15h-477q-37 0 -55.5 -18t-18.5 -49v-225z" />
<glyph unicode="&#xf3;" horiz-adv-x="1849" d="M98 0zM98 324v401q0 100 28 162.5t90.5 98.5t161.5 49.5t243 13.5h610q141 0 239.5 -13.5t161 -49.5t91 -99.5t28.5 -161.5v-401q0 -100 -27.5 -164t-89 -98.5t-161 -48t-242.5 -13.5h-610q-143 0 -242.5 12.5t-162 47t-90.5 98t-28 166.5zM616 410q0 -41 13.5 -53.5 t60.5 -12.5h484q35 0 47 13.5t12 52.5v225q0 37 -16.5 52t-49.5 15h-477q-37 0 -55.5 -18t-18.5 -49v-225zM630 1149l342 391h441l-420 -391h-363z" />
<glyph unicode="&#xf4;" horiz-adv-x="1849" d="M98 0zM98 324v401q0 100 28 162.5t90.5 98.5t161.5 49.5t243 13.5h610q141 0 239.5 -13.5t161 -49.5t91 -99.5t28.5 -161.5v-401q0 -100 -27.5 -164t-89 -98.5t-161 -48t-242.5 -13.5h-610q-143 0 -242.5 12.5t-162 47t-90.5 98t-28 166.5zM473 1149l242 391h424 l237 -391h-276l-176 252l-172 -252h-279zM616 410q0 -41 13.5 -53.5t60.5 -12.5h484q35 0 47 13.5t12 52.5v225q0 37 -16.5 52t-49.5 15h-477q-37 0 -55.5 -18t-18.5 -49v-225z" />
<glyph unicode="&#xf5;" horiz-adv-x="1849" d="M98 0zM98 324v401q0 100 28 162.5t90.5 98.5t161.5 49.5t243 13.5h610q141 0 239.5 -13.5t161 -49.5t91 -99.5t28.5 -161.5v-401q0 -100 -27.5 -164t-89 -98.5t-161 -48t-242.5 -13.5h-610q-143 0 -242.5 12.5t-162 47t-90.5 98t-28 166.5zM465 1186v76q0 279 232 278h76 q59 0 101 -24.5t78 -53t70.5 -53.5t79.5 -25h41q35 0 49.5 18.5t14.5 65.5v72h174v-78q0 -135 -55.5 -205.5t-174.5 -70.5h-77q-57 0 -99.5 23.5t-78 53t-70.5 53t-80 23.5h-41q-35 0 -49.5 -17t-14.5 -65v-71h-176zM616 410q0 -41 13.5 -53.5t60.5 -12.5h484q35 0 47 13.5 t12 52.5v225q0 37 -16.5 52t-49.5 15h-477q-37 0 -55.5 -18t-18.5 -49v-225z" />
<glyph unicode="&#xf6;" horiz-adv-x="1849" d="M98 0zM98 324v401q0 100 28 162.5t90.5 98.5t161.5 49.5t243 13.5h610q141 0 239.5 -13.5t161 -49.5t91 -99.5t28.5 -161.5v-401q0 -100 -27.5 -164t-89 -98.5t-161 -48t-242.5 -13.5h-610q-143 0 -242.5 12.5t-162 47t-90.5 98t-28 166.5zM336 1149v291h502v-291h-502z M616 410q0 -41 13.5 -53.5t60.5 -12.5h484q35 0 47 13.5t12 52.5v225q0 37 -16.5 52t-49.5 15h-477q-37 0 -55.5 -18t-18.5 -49v-225zM1010 1149v291h502v-291h-502z" />
<glyph unicode="&#xf7;" horiz-adv-x="1222" d="M98 0zM98 557v238h1026v-238h-1026zM352 0v309h520v-309h-520zM352 1044v309h520v-309h-520z" />
<glyph unicode="&#xf8;" horiz-adv-x="1849" d="M98 324v401q0 100 28 162.5t90.5 98.5t161.5 49.5t243 13.5h673l105 98h352l-154 -146q80 -35 117 -100t37 -176v-401q0 -100 -27.5 -164t-89 -98.5t-161 -48t-242.5 -13.5h-672l-102 -98h-357l150 141q-80 35 -116 99.5t-36 181.5zM578 358l376 363h-305q-72 0 -71 -68 v-295zM895 326h317q35 0 47.5 12t12.5 53v293z" />
<glyph unicode="&#xf9;" horiz-adv-x="1808" d="M92 0zM92 326v723h516v-637q0 -29 12.5 -47.5t36.5 -18.5h484q27 0 39 18.5t12 47.5v637h516v-1049h-516v70q-35 -70 -197 -70h-383q-150 0 -249 14.5t-159.5 50t-86 99t-25.5 162.5zM413 1540h441l342 -391h-361z" />
<glyph unicode="&#xfa;" horiz-adv-x="1808" d="M92 0zM92 326v723h516v-637q0 -29 12.5 -47.5t36.5 -18.5h484q27 0 39 18.5t12 47.5v637h516v-1049h-516v70q-35 -70 -197 -70h-383q-150 0 -249 14.5t-159.5 50t-86 99t-25.5 162.5zM612 1149l342 391h441l-420 -391h-363z" />
<glyph unicode="&#xfb;" horiz-adv-x="1808" d="M92 0zM92 326v723h516v-637q0 -29 12.5 -47.5t36.5 -18.5h484q27 0 39 18.5t12 47.5v637h516v-1049h-516v70q-35 -70 -197 -70h-383q-150 0 -249 14.5t-159.5 50t-86 99t-25.5 162.5zM450 1149l242 391h424l237 -391h-276l-176 252l-172 -252h-279z" />
<glyph unicode="&#xfc;" horiz-adv-x="1808" d="M92 0zM92 326v723h516v-637q0 -29 12.5 -47.5t36.5 -18.5h484q27 0 39 18.5t12 47.5v637h516v-1049h-516v70q-35 -70 -197 -70h-383q-150 0 -249 14.5t-159.5 50t-86 99t-25.5 162.5zM313 1149v291h502v-291h-502zM987 1149v291h502v-291h-502z" />
<glyph unicode="&#xfd;" horiz-adv-x="1759" d="M86 0zM86 379v670h516v-603q0 -66 68 -65h473v668h518v-1143q0 -102 -24.5 -167t-74 -99.5t-124 -47t-174.5 -12.5h-457v344h268q39 0 53.5 17.5t14.5 52.5v59h-541q-145 0 -244.5 13.5t-160 48.5t-86 98t-25.5 166zM587 1149l342 391h441l-420 -391h-363z" />
<glyph unicode="&#xfe;" horiz-adv-x="1783" d="M98 -420v1774h518v-305h562q141 0 240.5 -12.5t160.5 -48.5t89 -99.5t28 -163.5v-399q0 -100 -28 -164t-89 -99.5t-160.5 -49t-240.5 -13.5h-562v-420h-518zM616 346h494q39 0 53.5 15.5t14.5 50.5v223q0 39 -15.5 53t-54.5 14h-492v-356z" />
<glyph unicode="&#xff;" horiz-adv-x="1759" d="M86 0zM86 379v670h516v-603q0 -66 68 -65h473v668h518v-1143q0 -102 -24.5 -167t-74 -99.5t-124 -47t-174.5 -12.5h-457v344h268q39 0 53.5 17.5t14.5 52.5v59h-541q-145 0 -244.5 13.5t-160 48.5t-86 98t-25.5 166zM291 1149v291h502v-291h-502zM965 1149v291h502v-291 h-502z" />
<glyph unicode="&#x152;" horiz-adv-x="2893" d="M88 324v706q0 100 26.5 163.5t88 99.5t160 48.5t241.5 12.5h2224v-344h-1046v-170h491v-324h-491v-172h1046v-344h-2224q-145 0 -243.5 13.5t-159 48t-87 98t-26.5 164.5zM604 436q0 -51 29 -71.5t123 -20.5h350q90 0 120.5 19.5t30.5 72.5v482q0 53 -30.5 72.5 t-120.5 19.5h-350q-86 0 -119 -18.5t-33 -73.5v-482z" />
<glyph unicode="&#x153;" horiz-adv-x="2916" d="M98 324v401q0 100 28 162.5t90.5 98.5t161.5 49.5t243 13.5h1855q201 0 286 -68t85 -211v-84q0 -80 -16.5 -131t-58.5 -81t-114.5 -41t-185.5 -11h-713q0 -35 6.5 -56.5t22.5 -31.5t46 -13.5t77 -3.5h870v-317h-2160q-143 0 -242.5 12.5t-162 47t-90.5 98t-28 166.5z M616 410q0 -41 13.5 -53.5t60.5 -12.5h484q35 0 47 13.5t12 52.5v225q0 37 -16.5 52t-49.5 15h-477q-37 0 -55.5 -18t-18.5 -49v-225zM1733 680q0 -53 53 -53h510q45 0 45 53q0 47 -45 47h-510q-53 0 -53 -47z" />
<glyph unicode="&#x178;" horiz-adv-x="1687" d="M8 0zM8 1354h643l211 -353l213 353h604l-589 -781v-573h-517v573zM254 1454v291h502v-291h-502zM928 1454v291h502v-291h-502z" />
<glyph unicode="&#x2c6;" horiz-adv-x="1099" d="M98 1149l242 391h424l237 -391h-276l-176 252l-172 -252h-279z" />
<glyph unicode="&#x2dc;" horiz-adv-x="1114" d="M98 1186v76q0 279 232 278h76q59 0 101 -24.5t78 -53t70.5 -53.5t79.5 -25h41q35 0 49.5 18.5t14.5 65.5v72h174v-78q0 -135 -55.5 -205.5t-174.5 -70.5h-77q-57 0 -99.5 23.5t-78 53t-70.5 53t-80 23.5h-41q-35 0 -49.5 -17t-14.5 -65v-71h-176z" />
<glyph unicode="&#x2000;" horiz-adv-x="922" />
<glyph unicode="&#x2001;" horiz-adv-x="1845" />
<glyph unicode="&#x2002;" horiz-adv-x="922" />
<glyph unicode="&#x2003;" horiz-adv-x="1845" />
<glyph unicode="&#x2004;" horiz-adv-x="615" />
<glyph unicode="&#x2005;" horiz-adv-x="461" />
<glyph unicode="&#x2006;" horiz-adv-x="307" />
<glyph unicode="&#x2007;" horiz-adv-x="307" />
<glyph unicode="&#x2008;" horiz-adv-x="230" />
<glyph unicode="&#x2009;" horiz-adv-x="369" />
<glyph unicode="&#x200a;" horiz-adv-x="102" />
<glyph unicode="&#x2010;" horiz-adv-x="854" d="M35 518v238h782v-238h-782z" />
<glyph unicode="&#x2011;" horiz-adv-x="854" d="M35 518v238h782v-238h-782z" />
<glyph unicode="&#x2012;" horiz-adv-x="854" d="M35 518v238h782v-238h-782z" />
<glyph unicode="&#x2013;" horiz-adv-x="1306" d="M35 518v238h1233v-238h-1233z" />
<glyph unicode="&#x2014;" horiz-adv-x="2136" d="M35 518v238h2064v-238h-2064z" />
<glyph unicode="&#x2018;" horiz-adv-x="686" d="M82 850v334q0 98 66.5 153.5t166.5 55.5h146v-123h-51q-94 0 -95 -90v-43h287v-287h-520z" />
<glyph unicode="&#x2019;" horiz-adv-x="686" d="M82 1067v287h520v-334q0 -98 -66.5 -153.5t-166.5 -55.5h-148v123h53q94 0 95 90v43h-287z" />
<glyph unicode="&#x201a;" horiz-adv-x="686" d="M82 23v286h520v-334q0 -98 -66.5 -153t-166.5 -55h-148v122h53q94 0 95 91v43h-287z" />
<glyph unicode="&#x201c;" horiz-adv-x="1372" d="M82 850v334q0 98 66.5 153.5t166.5 55.5h146v-123h-51q-94 0 -95 -90v-43h287v-287h-520zM82 850zM768 850v334q0 98 66.5 153.5t166.5 55.5h146v-123h-51q-94 0 -95 -90v-43h287v-287h-520z" />
<glyph unicode="&#x201d;" horiz-adv-x="1372" d="M82 811zM82 1067v287h520v-334q0 -98 -66.5 -153.5t-166.5 -55.5h-148v123h53q94 0 95 90v43h-287zM768 1067v287h520v-334q0 -98 -66.5 -153.5t-166.5 -55.5h-148v123h53q94 0 95 90v43h-287z" />
<glyph unicode="&#x201e;" horiz-adv-x="1372" d="M82 0zM82 23v286h520v-334q0 -98 -66.5 -153t-166.5 -55h-148v122h53q94 0 95 91v43h-287zM768 23v286h520v-334q0 -98 -66.5 -153t-166.5 -55h-148v122h53q94 0 95 91v43h-287z" />
<glyph unicode="&#x2022;" horiz-adv-x="944" d="M98 551v221q0 55 12.5 89t41 54.5t73.5 27.5t111 7h274q125 0 179.5 -34.5t54.5 -143.5v-221q0 -55 -12.5 -90t-40 -53.5t-72.5 -25.5t-109 -7h-274q-66 0 -111 6t-73.5 25.5t-41 54.5t-12.5 90z" />
<glyph unicode="&#x2026;" horiz-adv-x="2895" d="M113 0v309h520v-309h-520zM113 0zM1188 0v309h520v-309h-520zM2263 0v309h520v-309h-520z" />
<glyph unicode="&#x202f;" horiz-adv-x="369" />
<glyph unicode="&#x2039;" horiz-adv-x="462" d="M35 461v424l391 237v-276l-252 -176l252 -172v-279z" />
<glyph unicode="&#x203a;" horiz-adv-x="462" d="M35 219v279l252 172l-252 176v276l391 -237v-424z" />
<glyph unicode="&#x205f;" horiz-adv-x="461" />
<glyph unicode="&#x20ac;" horiz-adv-x="1851" d="M27 475l18 129h105v152h-123l18 131h105v143q0 98 26.5 161.5t87 99.5t159.5 49.5t245 13.5h1147l-209 -344h-789q-150 0 -149 -92v-31h860l-80 -131h-780v-152h692l-82 -129h-610v-39q0 -92 149 -92h993v-344h-1142q-145 0 -244.5 13.5t-160 49t-87 99t-26.5 162.5v151 h-123z" />
<glyph unicode="&#x2122;" horiz-adv-x="2043" d="M29 1171v183h813v-183h-264v-534h-283v534h-266zM897 637v717h315l222 -447l215 447h295v-717h-261v305l-137 -305h-250l-139 305v-305h-260z" />
<glyph unicode="&#x25fc;" horiz-adv-x="1044" d="M0 0v1044h1044v-1044h-1044z" />
</font>
</defs>
</svg>
